<mxfile host="Electron" modified="2023-04-27T11:56:53.410Z" agent="Mozilla/5.0 (Windows NT 10.0; Win64; x64) AppleWebKit/537.36 (KHTML, like Gecko) draw.io/21.2.1 Chrome/112.0.5615.87 Electron/24.1.2 Safari/537.36" etag="Uc0dk2Te3hZyMYjGimmn" version="21.2.1" type="device">
  <diagram name="Seite-1" id="VlHH3ELuhuOH1Dzlnkoh">
    <mxGraphModel dx="1176" dy="679" grid="1" gridSize="10" guides="1" tooltips="1" connect="1" arrows="1" fold="1" page="1" pageScale="1" pageWidth="827" pageHeight="1169" math="0" shadow="0">
      <root>
        <mxCell id="0" />
        <mxCell id="1" parent="0" />
        <mxCell id="rsilXhcYcWH-N2wlFC1x-1" value="Beastopia&amp;nbsp;- Registration" style="strokeWidth=1;shadow=0;dashed=0;align=center;html=1;shape=mxgraph.mockup.containers.window;align=left;verticalAlign=top;spacingLeft=8;strokeColor2=#008cff;strokeColor3=#c4c4c4;fontColor=#666666;mainText=;fontSize=17;labelBackgroundColor=none;whiteSpace=wrap;" parent="1" vertex="1">
          <mxGeometry x="84" y="40" width="660" height="500" as="geometry" />
        </mxCell>
        <mxCell id="rsilXhcYcWH-N2wlFC1x-2" value="&lt;i&gt;Placeholder&lt;/i&gt;" style="strokeWidth=1;shadow=0;dashed=0;align=center;html=1;shape=mxgraph.mockup.forms.pwField;strokeColor=#999999;mainText=;align=left;fontColor=#666666;fontSize=17;spacingLeft=3;" parent="1" vertex="1">
          <mxGeometry x="272" y="170" width="280" height="30" as="geometry" />
        </mxCell>
        <mxCell id="rsilXhcYcWH-N2wlFC1x-18" value="" style="verticalLabelPosition=bottom;shadow=0;dashed=0;align=center;html=1;verticalAlign=top;strokeWidth=1;shape=mxgraph.mockup.graphics.simpleIcon;strokeColor=#999999;" parent="1" vertex="1">
          <mxGeometry x="461" y="340" width="90" height="90" as="geometry" />
        </mxCell>
        <mxCell id="rsilXhcYcWH-N2wlFC1x-21" value="Sign Up" style="strokeWidth=1;shadow=0;dashed=0;align=center;html=1;shape=mxgraph.mockup.buttons.button;strokeColor=#666666;fontColor=#ffffff;mainText=;buttonStyle=round;fontSize=17;fontStyle=1;fillColor=#008cff;whiteSpace=wrap;" parent="1" vertex="1">
          <mxGeometry x="271" y="430" width="150" height="50" as="geometry" />
        </mxCell>
        <mxCell id="rsilXhcYcWH-N2wlFC1x-23" value="Already have an account?" style="text;html=1;strokeColor=none;fillColor=none;align=center;verticalAlign=middle;whiteSpace=wrap;rounded=0;" parent="1" vertex="1">
          <mxGeometry x="441" y="450" width="173" height="30" as="geometry" />
        </mxCell>
        <mxCell id="rsilXhcYcWH-N2wlFC1x-24" value="&lt;font style=&quot;font-size: 12px;&quot;&gt;Sign in!&lt;/font&gt;" style="shape=rectangle;strokeColor=none;fillColor=none;linkText=;fontSize=17;fontColor=#0000ff;fontStyle=4;html=1;align=center;rotation=0;" parent="1" vertex="1">
          <mxGeometry x="484" y="470" width="90" height="30" as="geometry" />
        </mxCell>
        <mxCell id="rsilXhcYcWH-N2wlFC1x-25" value="" style="shape=image;verticalLabelPosition=bottom;labelBackgroundColor=default;verticalAlign=top;aspect=fixed;imageAspect=0;image=data:image/png,iVBORw0KGgoAAAANSUhEUgAAAN0AAADXCAYAAACeX1R8AAAgAElEQVR4nOx9d3gU1ff+2d2Z2ZLeA6GkEELoJYTeRKQIKAFBpGvgAyKoIAIqiCBIUSz0ooCAgoAiXbBSpNdACCQhJCEQ0vvuzszu+f3h995fJtnZ9Ere57mPkpmduXNn3nvPPVWBiAjPIBBR0lQqFQAAiKIIiAhKpRIAAMxmMwAAKBQKuHjxInTv3r1C+yWKIigUClAoFJJ+FOy7pb+X9n7kEzCbzcCyLACA7PXNZjMoFAraD9IX8jdBEECpVILZbAaz2UzHFhHhwoUL0LNnT0BEev6zCKaqO1CVEAQBBEGAnJwcsLe3B41GA4IgwNOnT8HFxQV0Oh3Ex8dDbGwsuLu7w4ULFyqcdIgIjx8/huTkZEhPTy90XKvVQtOmTcHNza1c7nfx4kWYP38+9O7dG5577jno1q0bnYAsQa/Xg8lkAp1OB0qlErKyssDBwYGSSKlUwv3794HjOHBzc4OIiAh49OgReHt7w8mTJ6Fbt27lNmHUVChq20pHVgqTyQRKpRJEUYTbt29DXFwc/PLLL/Do0SOIiIiA5ORkMJvNwHEciKIIZrMZGIYBjUYDiAjOzs6Ql5cHmZmZ0LZtWwAA8PHxgV27dgEiAsdxxepP/lWE/D8igiiK8ODBA0hISIDIyEiIiIiA8+fPQ15eHjx48ACMRqPF65FVxcfHB5o0aQI9e/aExo0bwwsvvAD29vZF9stkMoEgCPDkyRP47LPPYOfOnSAIAgAAMAwDL7zwAgwePBi6du0Kt2/fhoiICIiNjYWwsDCIjo6G7OxsUCgUoFKpwNHREZKSkkCr1YKzszNoNBpQqVQQFxcHdnZ2kJaWBgAA9erVA1tbW2jUqBEcOXIETCYT7eezuOLVOtKZTCbQ6/Wwd+9eOHr0KBw7dgxMJhMVaYh4lF9sJCBiXf7zyAdmMpmge/fuMG3aNBgyZAhoNJpi9Sc1NRViY2Ph9u3bEB4eDjdu3IDr169Damqq5H4mk0nSD1EULV5PqVSCnZ0d5OXlwQsvvACtW7cGHx8fyM3NBScnJ5gwYYLV/oiiCGFhYdC3b1/Iy8sDnufpyoOIwDAMKBQKWL58OYwdOxays7MhPj4eDAYD3L9/H/79918ICwuD8PBwKgKT/+YXNZVKJf0b+bePjw8MHToUhg4dCp07d5aIpc8Sag3peJ6HAwcOwA8//AAxMTHg5+cHrq6u4OHhAWlpaRATEwNnzpyhHzN5bLmPWw4qlQq0Wi1MnToVZs+eDS4uLmA2m0GpVNKVled5WL16Nfz5559w/vx5urKVBWq1GjQaDQQFBUF8fDxkZGRAeno6jBo1CqZOnQqOjo7g6ekJdnZ2EhKRPZogCICIcPnyZXj11Vfh0aNHVu83efJkWLduneT3R48ehebNmwMiwvTp0+Hff/8FvV5fqudp0aIFzJo1C1566SWwt7en93kWUKtIl3+DTmbs9PR0uHr1KixbtgyuXr0KjRo1AhcXFwD4bxW6c+dOie5D9jsM8992eMyYMbB69WrQarWQlJQE33zzDdy4cQN0Oh0kJCSASqWCa9euURGutLCxsQG1Wg1qtRqys7NBEATQaDTQr18/8PLyggYNGoCPjw/Y2NiAra0tBAYGSj5mQRDgxIkTMGrUKDCbzbLiK0FoaCisX7+e/j41NRVUKhWEh4fDzz//DH///TeEhYUBz/Oleh6GYUCpVIKbmxusX78ehg4dWqrr1ETUGtLJ4dixY9CwYUNwcnICV1dXyM3NhaNHj8LWrVvh6tWrIAiCRJQsKTlYloWAgABYv3492NvbU4WMh4cHPH36FG7dugV37tyBf/75B44fP17k9VmWpeKaSqWC5s2bg4eHByAiZGZmgq2tLQiCAKdPnwaO48DT0xO8vb3Bzc0NXnzxRWjdujUEBgZS8ZescAcPHoTQ0FDIzs4u8v5Dhw6Fl19+GUaPHk0nmaioKDh16hRs3LgRoqKi6J7ZYDCAQqGgk1BpSThmzBhYtmwZeHl5UTG3tqLWky7/fu7s2bNw9uxZePr0KajVajAajeDi4gKpqalw/fp1uHz5cpErQEGQj1KlUsGCBQtg7ty5VGWuUCggNjYWkpOTwWQyweLFi+HkyZNWr+ft7Q1paWng5eUFY8aMgbCwMPD19YXu3buDQqGAwMBAcHV1BZVKJVGamM1muvdUKpW0X4IgQFhYGPTr14+ukNZAiHz06FEIDAyk10lOTqZaSoPBAIIggE6nA5PJBAkJCbB27VrYtGlTqUnHsiz4+fnBqVOnwN3dvdiKqhoJrKUwGo3I8zyazWarjed5FAQB+/XrhwzDIABImlqtxgYNGqBarUa1Wo0Mw6BKpSp0nlKpRKVSiYcOHUK9Xl+oP3Fxcejh4VHodxzHIcMwOGHCBPz111/x9u3bGBcXhxkZGSiKYqmfnzxXTEwM+vj4FLovaSqVClUqFSoUClQoFDh37lzs3bt3ie6TmpqK9evXl4wLy7KoVqtRo9FgSEgIvvnmm9i4cWNkGAbVarVsfz799FOL41ebUGvXcESE77//vsiZHREhJSUF/vnnH4vHvby8YPz48TBhwgTYs2cPnD59Gv755x/Iy8srdB0AgEuXLsHAgQMLXWfBggWQmppa6O8KhQJatmwJy5cvp3tNIuqWBWQ/O2LECEhISJA9j6xkpP/u7u7Qr1+/Et3n66+/hqSkpEJ9bty4Mbz44ovQuXNnGDZsGKxevRpiY2Nh3bp18M0331i83o4dO6Bly5bw0ksvFbsPNQ5Vy/nyhyAIyPM8/vDDD8iyrOyMWlRjGAZ79uyJy5cvx9jYWHp9g8GAf//9N9avX9/i9W1tbTExMVHSn4cPH6Ktra3FFfJ///sfXrx4ka5MRqMRDQYDXalFUUSTyVTicTAYDDhs2LAin1Oj0dCVjmEYbNOmDf7+++/Fvk90dDQ6OzsXui7Lsujh4YFvv/028jxf6HdLliyxOH4qlQptbGzw7t27KAhCiZ+7JqDWuQYgIuTm5sKCBQvKdB2FQkGN1B4eHpK/d+3aFbZs2WJxNTIajfD+++9L/rZ582bIy8ujq0l+xMTEQEREBOzcuRM+/vhjGDRoEHTt2hVGjx4Nn332GZw/f77E+0wAgGXLlsGxY8eKPC+/JGAymYBhGOjcuXOx77NmzRpZ5QzLsrKr5rvvvgteXl4WjxkMBpg3b16x+1DjUNWsL2/wPI+LFy+W7Mk6dOiA7du3l7SgoCDs1KkTchwnWYGUSiWdqQMCAjAqKsriSiMIAjZq1MjiHq1z586Yk5ODf/75Jy5fvtziSiDXbGxssE+fPrhixQr89ddf8Y8//qArH1nFra0Aer0ejx8/Xui6ZM/GcRyyLItKpVKy0nAchz179sScnBw0Go1FjrPRaMQzZ86gvb29ZC9M7uPg4IBTpkyR/b0oiujp6WlV0jh+/HipV/rqjFpHutjYWHRwcKAvb/To0Wg0GgspUARBwM2bN6NKpSr00SiVSvT09MQ1a9agyWSyqNDQ6/Wo1WoLfSyNGzfGF154AVu3bk2VL9YUBwWbUqlElUpFFSxt2rTB0NBQnDNnDq5cuRIPHjyIKSkpss9/+fJldHFxsUg6lUqFzZs3xxEjRqBKpUKNRkOP29vb4+jRozEuLg4NBkOR42wwGLBnz57IMIxk/AiZ+/fvj6dPn5b9fUJCgkXFVX7StWnTBvPy8upIV11B9kNjxoyhs7mdnR1GRkZafGnJycnYvHlzi3sRW1tbHDVqFN6+fVv2fteuXbO4R2vatCk6OTmhUqlEhUJRqr0kx3HIcRw6Ojri6NGj8dChQ5icnIxRUVGy/TEajWg0GrFLly7IcZxkpddoNOji4oKLFy/GiIgIHDp0aKH76nQ6nDJlCj58+BB5nqeTDVldRVFEURTpfTZv3iy5D2mNGjXCAQMG4Pr16y2S12w2o8lkws8//9zino48O/n3mjVrLO4JazJqlfby4sWL8NNPP1Gfv3fffRe8vb0t7qVWrVoFkZGRhf7u6ekJwcHBMGTIEPD395e9165duyz+PS4uDmxsbIBhmFJ5obAsC76+vuDj4wNOTk4QHBwMzs7OcOPGDfD19bX62+XLl8PVq1clz2s2m6Fly5Ywbtw46N69O3h4eMC5c+cK/dbFxQVEUQRPT0+4ffs2ZGVlwYMHDyApKQny8vIgISEBXF1dwcXFBXieh2+++cbiuGZkZMClS5fgyy+/tHicGP6//fZbi3viHj16wMWLF6m9b8mSJTBy5Ehwd3cvcuxqDKqQ8OUKvV6PXbp0oTOkj48PpqenFzqP53m8e/cu2tjYFBKLlEol2tjYYL169TA+Pl52L5ebm4teXl4WZ2obGxuJjargcci3orEsi66urvjCCy/gxIkTsW/fvqjT6ZDjOOzUqRMuXrwYk5OTrYpXZM9z4cIFtLe3L3QftVqNwcHBePr0aeR5Hs+ePWtxhVIqlajVatHf35+Ktmq1GseNG4erV6/Gc+fOocFgQJ7ncdGiRejo6Ch5fpVKhTqdDjUaDb711lsW+ymKIvI8j7NmzbK4wjk7O+OIESNww4YNqNVqUaVSIcuy+NZbb6EgCGWyW1Yn1JqV7ocffoDLly/Tfy9evBhsbW0LnWc2m2H79u00nCc/NBoNiKIIU6ZMAU9PT+rInB+ICPPmzYPExESLM7UoivDRRx/B/v37ISIiQra/TZs2hUmTJkF8fDzk5eVBcHAwCIIA77//PjRr1ozeP7+XiRzi4+Nh5MiRYDAYCh1zcnIClUoFu3fvho8++gju3r1rcQUCABon17BhQ3j8+DEEBASARqOBa9euga2tLSQnJ0N0dDSsX78ecnNzJeNHAlX9/f3hvffeK3Rt4skyZ84c2LJlS6HjSqUSZs+eDYcPH4ZRo0bB3bt3YePGjQAA8O2338Lrr78OrVq1kh2DGoUqJn2ZIQgCpqSkYMOGDalSpFu3biiKIprN5kLnX7hwAd3c3CyuPDY2Nujv749Pnz4t9DuiQXz//fdl9yILFy7ENm3a4O3bt1Gj0VBNKLm+ra0tBgYG4u7duzE6OrpMdiiyNxIEATt37lzivWNRjax2fn5+OGrUKDxx4gTyPI9vvvmmrNbW2dkZN27cKPEo4XkeeZ7H+Ph4DAoKkr2fRqPBwYMH461bt9BoNGJiYqJEu9m/f/9aY7er8aQTRRHnz59PtWgcx+G5c+csEg4RcerUqejn52dRgdKgQQNcu3atRTektLQ07N+/P2q1WoukCwoKwpCQELxy5QpOnDiRaiHzky4oKAh/+ukn+iGWRUFgNpsxNzcXp02bZlULWNrWokUL7NatG3755Zd48uRJ5Hkew8LC0M/Pz+LzBwQEUJNDfnJkZ2fjggULComjBZtarcahQ4dKTCNr166VkPrnn38u9XhVJ9R40t27dw9tbW0p6SZOnGhxRtTr9RgREUH9/wrO6J6enti6dWt88uQJ8jyPRqORauv27NmD7dq1s7gXYlkWmzRpgsuXL8fQ0FCMj49HJycnyV5HqVQiwzC4YcMGzMrKkvSP7HXyawnJh5f/mNFoxOzsbDxw4ABOnjwZAwICSmSKIPazgn8nvpdqtRqbNm2Kq1evxl9//RVv3ryJeXl5tJ9GoxHXr1+P7u7ukvFTqVTo7u6Obdu2xb1796LRaMS8vDy8desWLl26FP38/Io1KTAMg3Z2dnj//n06DgaDAVu1akX9XQMCAjArK6vGazNrPOmGDx9OX4qzszPGxsZaNO7yPI/bt29HLy+vQip1T09P7Nu3L3711VfU+CwIAp48eRL79u2LLMtSxYclscrf3x+7dOmCCQkJOHLkSAkZlEolqtVq7Nu3L6akpBRSCJhMJoyPj8d9+/bhypUrcebMmTh27FicMWMGfvXVV3jp0iUURREPHTqEfn5+qNFoqEHfksnC2kdtiXREgXL06FFKdtLyK3BycnLwueeeQ61WKyGRWq1GjuPQ1dUVjx49ip9//jkOHjyYvpPi9pNsDUaMGEHvLYoinjhxgk6MDMPgsmXL6khXVeB5Hk+dOiVZcZYvXy57vsFgwP79+8t+BG5ubvj06VO8desWfvnll+jr62t1huY4Dm1sbNDW1hZbtGiB169fx71799KVLf95jRo1wi1btqDRaMSoqCjctm0bzp07F19++WV0d3eXnK/VarFTp074+uuv4/r16/HHH3/ELVu24O7du3HgwIGF7H8cx0m0lmRy8PT0RA8PDwwODsZ3330Xt23bhuPHj6daWoZhsF69esiyLLZo0QLPnDlj0a5GVtrY2Fj86KOPLJKWYRisX78+1bzmfx5L48ayrOx7YFkWT506hSaTCU0mE/I8j0OHDqWkc3JywkePHlXkp1XhqLGky8vLw3bt2tGX1bRpU8zKypI9PyIiAidMmEDDcwq+7IYNG6Kvry/qdDqqrrY2Q7Msi23atMFXXnkFU1JS0GAwYJ8+fQqtJmq1Glu0aIHBwcHYrVs3OqOTj7XgfYiY1bx5cwwKCsLOnTvj66+/jm+88QY2bNgQNRqNpP/Ozs4SI3/Hjh0xNDQUv/zyS0xPT6d7LKPRiAsWLKD3JORkWRZbt26Njx8/lpUQsrKy8KuvvsKGDRtaXKE4jkO1Wk3dy6w5BajVauzVqxfqdDqL70GlUmH79u3RYDCgyWRCo9GI4eHh1N1MqVTi66+/XpGfVoWjxpGOyPtr166ViH379u2zaM/ieR4NBgNeunQJX3zxRYtiV3H2RuRDVavV6OzsjJMmTcJFixahXq+nM3LLli3p+cSdTKfTWdSWWrp+/n7odDr08PCgnjVeXl7Yp08fHD9+PPXayO+GxnEcTpo0SdamZzabcfLkyajT6ZBlWXR0dKREWbp0KT1PEATU6/XUt3LRokXYv3//YouxZBIhhHZ3d8d27dqhvb09+vj44Lhx4/DcuXO4ZcsWq4qV9evXSyaBOXPm0MlJqVTSyIyaiBpHOkEQMDk5GT09Pams/9xzz1EyFkRaWhoePHgQGzRoIBtKUpw9B8MwaG9vj82bN8dVq1bRPRBR3f/+++8S0hDnYgcHh2KFGBGxL//9yKrk5uaGPXv2xOnTp2ODBg3o6uLl5UXPHzJkCD569Ij6lloat//973/Yrl07ZBgGe/ToQfdju3fvpufxPI9paWm4YMEC7NevH2q1WosKJGvPYWdnh82aNcMRI0Zgnz590N3dHSdNmoSHDx/G5ORkNBgMaDAYsEOHDrLX8fDwwOTkZNqvlJQU9PLyogqhXr161VjS1TjjuNlshmXLlkFiYiIA/JewZ9WqVfRYXl4eXL58GaKiouDQoUNw4sQJQMRChnCC/KnvAP5zw1KpVKBQKKB58+bg7u4OiAhJSUng6uoKEyZMgJEjR9IcHiQdxKeffiq5ByICz/OF0heQ3zEMI8mFqVAooF69etCiRQuoX78+JCQkQNu2baFXr17g7e0NjRo1gm+++YY+t6+vLzx+/JjmVFmyZAl4eHjIBr8iIjRt2hTCw8PB0dGR9sPGxgaGDRsGaWlpEBUVBefPn4fHjx9DVFQUGAwG4DgO9Ho96HQ6UCgUkJubCwBA0yng/+VyIY4EXbp0AUSEnJwcsLGxgfnz54OTkxM0aNCAJosC+M+JYOXKlTBw4EAwm82FsqWlpqbCihUrYNmyZaBQKMDe3h4WLVoEb731FphMJvj3339h3759MHLkSMm41gTUuBwpt2/fhk6dOtHI7alTp8I333wDPM/D1atXYdq0aRAZGUlzMPI8T/39ioN69eqBo6MjTXnHMAy4uLhASEgIvPrqqzTmjGTJMplMcPPmTejatSuYzeYi/S0bN24MLi4uYGNjA4MGDYLIyEhQKBRQv3598PPzgz59+oCzszNotVrqkWI2myEhIQFat24Nubm54ODgAJ6enhAdHQ2Ojo6wY8cO6Nu3LwDIf3yCIMCePXsgNDQUnJ2dQa1Ww5MnTyAoKAj++ecfQEQwmUzw+PFj+OOPP+Dff/+F33//HURRBIPBAAaDAVQqFSUdy7Lg6ekJzZs3h0ePHkFMTAx4e3vDoEGDoF27duDq6go9e/aknjSkX+TfhGTjx4+Hffv2FSIdwzDAcRxcuHABAgICQKVSgSAI0KtXL7h27RooFApo2LAhXLlyBezs7GoU6WqMeEm0aAMHDpSIXbdu3cIDBw7IRnLLNSK+kRwoxF+yW7duGBQUhOPGjcMDBw4U2S+e5/Hp06fo7e0tEcOIoZ5lWeQ4Dps0aYKBgYE4cOBA9PX1xWPHjuGRI0fw8uXLVuPXyHPPnDkTOY5DnU6Hs2fPRo1Gg87Ozrh3795iheKYTCZ88uQJNmvWDH19fbFevXrIcRz27duXRqknJCTgvHnzcMyYMdi2bVvqRUNEcKVSSU0WpL344ov4xhtvYGhoKJ47d65E7xTxv8hzOzs72ff04osvSuyaf/31l0SMX7hwYbHi/6oTagzpBEHAw4cP030cy7IYEhKCH374IbZu3Rrd3d1LRDqWZdHb2xtffPFF9PX1RVtbWxw9ejSeOXMGY2JiMDU1tVgfM9EM3rp1S5IAiGEYqkRp3749Tpo0CVevXk01ncQWVpRniiiKGB8fj+7u7vjqq6/i9OnTcejQociyLM6ZMwd5ni9WIh+ShGnPnj04fvx4XLJkCXIchxMmTMCtW7fipEmTsG/fvmhra0tTOJCm0WioR4mzszPOnTsXBwwYgLt27cLMzEzU6/XUTa6kEAQBFyxYYPU9HTlyRHL+6NGj6XE7Ozt8+PBhie9blagx4mVOTg506tQJwsPDAQCgVatWcPDgQbh48SJ8++23cP36dcjJySl2CjiO40ClUsEHH3wAWVlZ0LJlSxgwYECpQ0hMJhMkJSXBkiVL4MiRI9C2bVt4/vnnoXPnztC2bdtSp5QTRRHi4+MhJSUFdDod1KtXD/r06QNbt26FVq1aFTu9uyAI8PDhQ4iIiIAdO3aAVquF/fv3Q/fu3YHneXBwcICYmBhwdnam4mu9evWgb9++0KlTJ3jjjTegYcOGEBISAm3btqUZrcuaQMlkMkFWVhZ06NABnjx5UshpW6VSQUBAAFy6dAnUajUolUqIjY2Fdu3a0RQYr7zyCuzYsUOSf7Nao4pJX2wUDHr84Ycf8K233sKXXnoJ7ezsZH0i5dqsWbMwOjqaqsfJylNakFWLiGr5r1mWkBQiXub3Rzx9+jS9T2n69/PPP+PGjRvRyckJo6Oj6bVI6A7xyiH/DQ8Pxw0bNkjGSs63taQgz7Z7925Z7TLLsvjFF19IXOM+/vhjukVgWRZPnz5dY0J/qj3p9Ho9JiQkoJubGx1grVZLfQALGosLNq1Wi97e3ujl5YXPPfccqlQqHDBgQFU/VolBUkxs2bKlWGKvHEwmE6akpOC1a9ewZcuWRebX5Hlekt2sosDzPHbv3p3aNwu+R3d3d3z8+DE9PyMjQyLOd+nSpUzjUpmo9qQ7cuQIdu7cmRrCbW1tccuWLfjBBx/gqlWrcN++fejt7S1Lunr16uGqVatwx44d6OPjgyzL4rVr16r6sUoMsrKQ1aq0IEGvPM/juHHjqLuVHIpKhFRe4HkeL1y4QL1aLK14U6dOpeeT1ZEc5zgOv/vuuwrvZ3mg2pKOGHmvXr1KNYAMw+CsWbMk3vdbtmyxuNKRVXHt2rW4adMmTEtLw/bt22P//v1rrFG1PGEwGPDdd9+t6m4UwoQJEyyKmQqFAlmWxevXr0smgZ49e1IH8AYNGmBqamq1f7/VlnSI/83KvXv3pg6ynp6emJSUREmXmpqKDRs2lN0LBAUF4fnz53H37t2YkZGBo0aNwrt371b7l1IZ4HkeDx48WNXdKISHDx9KQqNIIx47zz//vESMvHTpEt1iMAyD8+bNq/bZw6ot6URRxD179khUxxs2bKDHBUHAOXPmWFU1nzx5Ep8+fYqCIGBCQgJOmDChCp+oDsWBIAj42WefFcpHmv+9HjhwQBKC9cYbb1DbrY2NDUZERFT1Y1hFtSVdZmYmNm3alA52hw4dJDNcREQE2tjYyJLulVdeof6YJBnOP//8U4VPVIfigOd5zM7OxqZNm1rcNnAchwEBAZiRkUE1rHFxcejk5ERXu2HDhlX1Y1hFtSMd2astWbKEevZzHIenTp2iKmOe5/Hll1+W3cvZ2tpiVFSURE0+a9asOrGyBuHAgQNWtdJLly6VvM8VK1ZIzv/tt9+q7fuudqQjAZOOjo7URjNq1ChJOoPffvuN7vMske7DDz+kCVN5nsfIyEi8fv16jXMXepZBypfJkc7R0VESzJqVlYX+/v70eLt27TA3N7cKn0Ae1ZJ0EydOlLj5REZG0uO5ubnYtm1b2ZfRqFEjTEtLo+fzPI/Hjx+vikepQxnA8zxevXpVNtiVZVmcMGGCxAmBrI5EQvr666+p5FSdUO1Id+7cOYnj8EcffSQRE9asWWM16HTbtm2SQSaeFnWoWSCKkunTp8tGmLMsi//++y/ddpDVkZAuv7a7OqHakE4QBMzLy8MePXrQKGqyahHR8smTJ+jh4SG7l+vcuXORxt461Cw8efIE3d3dZSfZHj16SCbVGzduSDJrz5gxo9ptK6oN6Xiex++++47u1RiGwR07dkjScc+YMUN2L6dWq/H06dOykdN1qJngeR6/+eYbq6ah77//XnL+W2+9Jfkubt26VYVPUBjVhnTp6enYqFEjGo7ftWtXiZh469Yti7UBiHvY+PHjq622qg6lB8kD2qJFC1kxs3Hjxpienk4losTERHR3d6dJqAYMGEDzmFYHVBvSLViwQJKY9dy5cxIS9e/f32KuDpKWLSYmptqJEXUoO8h24ejRoxb38mRvt3DhQsnebs2aNVQq4jgODx48WEc6AkEQMCoqikYocxyH48ePp8d5nscDBw7Iihccx+GSJUuq8AnqUBngeR6HDBlCtZMFvwNimyXQ6/WS7GwBAQGYnZ1dhRuxLFQAACAASURBVE/w/1EtSEcqg6pUKnRwcMCYmBh6PDs7GwMDA2VJ5+vrW20Gsw4VB57n8c6dO2hnZyebaXvkyJH0fKPRiMeOHZMcX7FiRRU+wf9HlUWOi6IISqUSTp8+Df369QOFQgEKhQIWLlxIi7wjIqxatQoWLVpUKCJcpVKBSqWCXbt2QUhICKhUqqp4jFoLk8kE+/fvh/v371s979VXXwUfH59Ki9ieM2cOrF69Wja7259//gk9evSg/Xn55Zfh2LFjgIjg5OQE169fB09Pz6r9XqqK7SaTCXNzc7F9+/bUZ87f358WiBBFERMSEtDJycmiOKFSqbB3795lrn5TB8sQRRFDQkKoYkuuHTlypFL30snJyVivXj1ZyScoKEhS+CQ8PJwWmGFZFkNDQ6vcbitfabCCYTKZYOfOnXDt2jWafm3ZsmVgZ2cHLMsCIsLChQshPT29UG5KAAC1Wg2ff/45sCxL0+HVofxAcp/g/5WSlmsKhaJSx9/R0RE++eQT4DjO4up648YN2LZtG5hMJhAEAfz9/WHatGkA8F9e1B07dsCtW7do/6sEVUR2TElJkcxYffr0kZgILl++bDWz8OTJk6t8xqrNMJlMGBISIjv+pB09erRS7aLEgb1jx46yElD+YFZRFDElJQXr169PNZ19+vSRLRpaGah00pGUdbNmzaLR4FqtluamJ25bJJ9JwUFlGAZdXFwwISGh2vnU1QSQlH3Lli3DxMRE6nxg6bwJEyagi4sLuri4oIeHB7q4uFQ56Qj++OMPq+6As2fPloi9W7dulShgfvzxxyozIVQ66URRxFu3btGySiqVCqdNm0Z97QwGA/7www+UkJZIt2rVKmoIrUPJkJOTgxMnTkSO47Bjx46UeAVBnIiJhw/P83jx4sVqQzqe53HkyJGypNNqtXjnzh16vsFgwI4dO9Ljfn5+mJGRUen9RqyilW7w4MH04d3c3CRZnrKystDX11d2MAMDA4uVXLUOUpAKqW+88YZkxu/YsSM+ffpUdsUjMJlMeOXKlWpDOpPJhFFRUejg4GAxkRHDMDh48GBJGkSyOpKcO5988gkajcZK99WtdNIdOnRIIhaQ6qcEixYtslpF59dff61b4UqBvLw8nDhxIqrVaok7nVqtxuDgYNkVj6C6kY5IRh999JHVKISjR49KgplfffVVmhLe3t4eY2Njay/peJ7HnJwcbN68OY0GJ6sW8a+LiYlBBwcHWXevgQMHVlZ3aw3IHjk0NNRqMt7g4GC64uXfK5MyxEajES9fvmyRdEQpUbARFy7SKmIPnpmZiY0bN5Z9rpYtW0qCWaOjoyWVa8eOHVvpk7hq0aJFiyxpNcsbiAjr1q2DPXv2AMB/1Vu2bNkCgYGBtKrOzJkz4caNG5ISUgQajQb27NkDHh4eldHdWgOj0QjTp0+H3bt3g1KpLFQdhyAlJQX+/PNPGDZsGGg0Gmo8NpvNYDQaITY2Fq5cuQKHDh2S/K5BgwaQnJwM4eHhcOfOHUm7e/cuxMbGQnZ2Nmg0GtBqtbRqT3mBYRhwd3eHX375xeLx9PR0cHFxgc6dOwMAgJ2dHfA8D//88w8AAEREREDfvn2hUaNG5dovq6gsdicmJqKbmxtd9gcNGkQTn5pMJvznn38szsTEcP7OO+/UOTSXAsuXL5dIDqSSUKtWrejf85cr7tSpEyYlJeHNmzfx66+/xl69elmM7ihpYxgG+/bti99//z2mpKSUe0R3ly5dZL8fd3d3fPLkCU0fn56ejt7e3rTgZdeuXWlRl8pApZFu6tSplEB2dnZ469YtmsfEYDBgp06dZO0uHh4eRe456mAZ6enp2KVLF8keLiQkBPPy8nD58uWFaoSTclzEsVipVBarUm1xSEeak5MTrl69GtPT08vtOf/991/ZbQnDMFRDTsi+e/duSd31LVu2VNqkXuGk43ker1+/Tl8cwzCSzMI8z+OWLVtkXxbLsrhu3bqK7matBSln3K1bN1Sr1Ths2DCJ9peUzCorqUpDwoCAALx06VK5ODmQ3DpyUQgcx+H169fpflMQBOzRowedVBo0aCDJrVORqBTS9evXj/rqubu7Y2pqKj2enp4uqZ1dsLVp06bORFAGkJk9JSUF33vvPdTr9ZLxPHnypNV0CBXVSHYAW1tb3Lt3b5mfUxAEfPjwITo6Osrad1944QU0mUyUdBcuXKC2YpZlcd68eWXuR3FQYaQj6e/27dtHl3CGYXDjxo2S8k8ffPCBbLYnlmXxxIkTdWJlOYKMe2ZmpiStQVU2pVKJO3futDi55uTkoFqtpmp+rVaLX331lezzffbZZ1a1tPv375fs3SZNmkSDXXU6Hd6/f7/C93YVRjpBEDAjIwObNm1KCde+fXu6YeV5Hu/evYs2NjaypBs+fHiZ68bVQQqj0YgJCQnYvXv3KhErCzayn7S3t8fo6OhC/c3Ozqb7TlJG64svvpB9voyMDGzSpIns/Zo2bYpZWVn0/EePHtFIFoVCgcOHD69wE0KFkm7JkiX0YdVqNZ46dYoeNxqNOGzYMNnBsbGxwXv37lVU9545kGxr0dHR2KxZsyonW36xr3Hjxvj3339bXOkI6fKT1BrpRFGk0pWcYu6zzz6j0pbRaMSlS5dSyUqlUuGpU6eo0qUiUGGki4+PRwcHB/qww4cPl2iHSJZmuZcxd+7cOs+TcgTZ8/j7+5eoYm1FN29vb3zw4AHq9XqL77s0pDMajVYd5p2cnDAhIYGarHJzczEgIID6+7Zv3x5zc3NrDumI6Dh+/HiqSXJ0dMT79+9T7wa9Xo9t2rSRTaVHNEl1YmXZQTxDUlNTJQ6/Vd04jkMnJycMCwuTjXIguU7zi8Esy+KSJUuoPyVRjBTE9evXrdoXJ02aJPm+9u/fL7nPmjVrahbpzp8/T/dxDMPg/PnzJfkr16xZIxtFoFKpcPv27ZVWAfRZgMlkwrFjx1aLPVx+8qxbt07W0TomJgbfffddtLW1lfjqEhfCbt264W+//SabXFgQBJw6darV+1+6dImeL4oi9unThx53c3PD5OTkCnkf5U46vV6PPXv2pJ1v0KCBJITi6dOnFlXUZKMcHBxcF5xajjAYDLh9+/YqJ1nB1qxZM4vGaKPRiAcOHEBHR8diicEjR47ElJSUQgo3QRDw8ePH6OrqajHujmEY7N27N+bm5tL925UrV1Cr1Rbygipvo3m5k+7777+XDNb27dslgzFjxgyLYqVSqUSWZfHs2bN1e7lyRGJiInp4eFQ5yQq2r776yqIks2nTJtRoNLKKkIKN4zjs3LkzpqamFiKdKIr4xRdfWFzhSbrHXbt2SfJlTp8+nUppWq0Ww8LCyv17LDfSCYKAaWlp2LhxY/pAnTp1osdFUcTbt28jx3ESt6P8gzdmzJjy6s4zDyK2TZs2zWqdt6Ia+QBJEmCSKpFo+yw1a2IsKWMcExMjEQvzG6stfR9FNVJOrSAMBgO2aNECAcDidb29vSWS2JMnTyQR8gMHDqy+pDOZTPjxxx/TpZnUFiAwGAw4YMAAOugFH97BwQEfPHhQXt155iEIAkZGRqJGo7E43sVtHMdhu3btMDQ0FHfv3o2RkZFoMBgshvKYzWY8c+aMVdKpVCqsX78+VaoR8DyPXbp0kf0+itPPo0ePWhyHo0ePyhKZYRhcuHChpB+rV6+WXLe8a7OXG+kePHhADd0kSzNRhvA8j4cOHbL4MsjMuHjx4jrFSTlCEAScOXNmiT9e4gTs6+uLc+bMoar14uL06dNWVyqVSoXdunUr9LuzZ8+WyZShUqmwX79+VFQsCJId2tLz2tnZ4YMHD2h6Cp7nae0EpVKJgYGBmJOTU27fZ7mRbuTIkVQOd3R0xJiYGEq4rKwsbNWqlcVBValU6Ofnh1lZWXWkK0dkZWVZTCRUVPPx8cGNGzfSCbOkITjFId1zzz1X6HcffvhhmcRgIl2RsKGCCAsLQ1tbW4u/YxgGR48eTU0QoijikSNHqF8myctTXiaEMpNOEAT866+/JIOav7aA0WjElStXWn0JP/74Y1m7UYcC+PHHH4v1EZM9mk6nwxkzZqBer5dVwRMCEtuYnHhp7b4cx2G/fv0K/W7IkCHlYrT/+++/Lfaf53mcPXs2siwrm1Pl9OnTEk+VoUOH0j2tq6urJJdPWVDmXNg8z8P7779P/92wYUN455136L/T09Nh2bJlsr/v3r07jBgxoqzdqEMBHDt2TDb1eH4gIri5ucH27dvh+eefl43sRkSIjY2F2NhYSE1NBb1eb/G86OjoIqPDnz59Cjt37pT87cGDB+WS/DUjI8PidRARPvroI9i5cyekpaUVGhuFQgHvvfce/PXXX6DRaAAR4dNPP4W//voL9Ho9ZGRkwMcffwybN28ucx9LvdKRmW/dunVUq8WyLO7du5faTIxGo2xuDqKSvXDhQl0UQTmC5CLx8vKyqnInmkYvLy8MCwsrdB3iEXL//n387LPPqFZa7npV3YgC5s8//7T6PW3cuNHqilowmHX27NnIcRy9/tWrV8u8DSo16URRxNTUVJo5V6VSYa9evSTRuZcvX5a1t7Asi5MnT67zPClnmEwmjIyMRIVCYZUkDMOgo6MjXrp0yaJK/MGDBzhhwgSJZ1F1Jh153qIUPzzPY7t27WSv4+npWSje08PDgzpvPP/882U2IZSadCRLM+msVquVuNUYDAbs27ev7MOVp4xcGyG3ZyqqiaKIBw8eLPIjZVkWP/vsM3o/IrkYjUbcsGEDarXaMpkaKruxLCuxC8tBFEU8deoUarVa2ZJb77//PhqNRiqxbdy4keaWYRgGf/zxxzJFIZSadOHh4RKH0ilTpkhmgD179lhdxlevXl23wlkBERNzc3NL1LKzs3HFihVFfqQeHh6SUBribT958mSqKq9ppNu5c2eR40qyiI8cOVI2rYNWq8Xw8HCJUqVDhw7UHNakSRPMzMws9fdbYtKZTCY0Go340ksvUZuOq6srxsfH031AZmYmNmnSRFasbNq0KRoMhkpP8lmTYDab8dy5cxX2kU6ePFky/gaDARcvXlzl5Clp02g0yHEc9urVq0QkINV/5a778ssvSxaRU6dOSXw4Fy9eXGoxs8SkE0URjx49Ksmk9Pnnn9O9GQleJfsAS6T75Zdf6ghXBCqadBs2bJB8pJmZmWhnZ1flJCppYxgGmzZtirGxsSUigSAI+OGHH8peV61W47Fjx+j5PM/jqFGj6HF7e3uMi4sr1bstMelyc3OpLxvAf7Wc80cFxMbGWnx5hKT9+/evc2guBiqadLt27ZLEod2+fbtGiZMqlQo1Gg22a9cO4+PjSzy+PM9jRkYGNmzYUFa73qpVK8zOzqb73cjISHRwcKDi97hx42guzZKgxOl2N23aBJGRkfTfK1eupAUEAQA+/PBDWRsOy7KwYsUK2SzDdahDceHt7Q2ffvopnD9/Htzc3Er8e4VCATY2NvDpp5/KnhMeHg5bt24FhUIBZrMZvL29YcaMGfT3e/bsgatXr5b83ojFs0iKoggpKSnQtm1bSEtLAwCAF154AY4cOUKPX7hwAXr06GHx9yzLwrRp0+Drr78ucSefRYiiCPfu3YNVq1ZVyPWnTJkCwcHBtJppbGwsLFy4UDKBVjeo1Wrw9/eHfv36QZs2bcrlmqIoQo8ePeDSpUsAAIWM5m5ubnDnzh1K7OzsbGjZsiXExcUBwH/OHb/99hvodLri37Qky/G0adOo2tTGxgZv3rxJj+v1euzUqZOsOODm5iaxf9TBOkRRxLy8vEJFOMqrFazvR6L6K+p+5dFf8t/ydKbgeR7PnTuHarXaonjNsizOmDGDni8IAu7YsYMe5zgOd+zYUaJ7Fkk6Yv+5ceMGTbHAMAzOnj1bojzZunWrRcUJ+c3atWvrTAR1qLYg2aELfr8kA/TNmzcl32/nzp2p40ejRo0wIyOj2N93sUhnMpnw+eefp14J7u7ukiIQZEMql/Okbdu21NhYhzpUR8THx1tUAJKIif79+0u+37Nnz9IId4Zh8IMPPig/0vE8jwcOHJBodfLXFuB5HufPny8rVnIch7/99lsphqEOdag8GI1G/OSTT6gZrOB3rFar8ZdffqGeKKIoYmhoKPU51mg0GBUVVax7FUm6rKwsDAgIoDdv06aNxCE0KioKdTqdLOlCQkLqTAR1qPYgHjn+/v6y9uXAwEDMysqiUltcXBza29tTc9iIESOKdS9Z0omiiAaDAZctW0bzyKvVajx+/LjEPSYkJERWrLS3t8eIiIg6Q7gVEH/J0vpa1qF8sW/fPqvxgMuXL5cocpYuXSrJiPDHH38UuchYJd2jR48okzmOo6sWUZ6cOnVKNoqAOI4W1JLVQQqz2YwGgwHz8vJK1ApW36lD+YDneUn+y4LN0dERExIS6PnZ2dno6+tLj7dv3x6zs7Ot3kOWdIIg4IQJE+jFCtYWyMvLsxoiUb9+/XIt+ldbYTab8Z133imxRwYpO1aH8oUgCHj16lWa/7LguDMMg6+//joaDAYq8ZHVkYS4bdiwwWqaC1nSXbp0SXLTefPmSS6ybt06q1EE3377bV3S2GKgjnTVC4QsxCZtadvEcRxeunRJEqz93HPPUeJ5enrK5mpBtEA6cpHevXsjy7KoVqvRy8sL09PTqZ9ZcnIy1qtXz+JMoFarMSgoqMIHp7agjnTVE0+ePEEnJyfZ8e/du7dEoXj16lWJQvHtt9+WXekK+V6azWbYs2cPnD17FhARTCYTLFmyBGxtbUGlUgEiwtKlSyE5ObngTym++OIL2WN1qENNgJubGyxcuFD2+L///gv79++n/27VqhVMmDCB/rugj7IEBVmYkZFB82EolUrs3LkzdcFBRLxz545sxC3DMPjaa6/VKU5KgLqVrnqClEhu1qyZrJjp4+ODmZmZ1G5HaicQr60hQ4ZYdAoptNJ98cUX8OTJEwAAYBiGOtwST+v8mb/yw2w2g06ns+q1XYc61CSoVCr4/PPPLWYXUygU8OjRI/j6668B/9umgaurK3zwwQc0G9rx48fht99+K5yVjbBPEAR88OAB6nQ6amUfP348Zacoinj48GHZmZdlWVy0aFElzUO1B0WtdORdkMQ4pKlUKqxXr16J72c0GvHbb7+lWdvqYB0GgwEHDRokW9rNzs4OHz58SM/neR4DAwPpe2rRogXm5uZKrikh3auvvkrrOtvZ2UmCA3NyciTBqwWbj4+PpJZzHYqHokjXq1cvPH78OJ48ebJQ++uvv0p8v02bNtFsyD/99FMFPFHtAs/zNDu0nAkhf+EbQRDw8OHD1HbNsmyhyrFA1J5///03dd5kWRY//vhjNBqNVF794osvZGs4syyLP/zwQ53nSSlQFOmGDx9eLuPK8zx+9913ha7/008/1a14xcA777xjtTDKmTNnJOM4ePBgakJwc3PDx48fU10HCIKAOTk5GBwcTJ09/fz8MCcnhxIuKSkJnZ2dZd29unfvXqGF0WszKot0ZIUreP26Fa94SE9PRzc3N9n3FBwcLBEjw8LCUKfTUeJNnjyZkhJEUcRNmzZJlsvdu3fTHwuCgFOmTJG9mUajwYsXL1b6INQWVDTp5Fa4uhWvZBAEAdevXy9bf0+lUuHmzZup26Moijhr1ixagITjOLxy5QqazWaEtLQ0SaXOHj16SAb/xo0bVj1PQkND60wEZUBFk27z5s3FKiSiVqtx37595fhktQsksr5t27ayJoT69etjWloa9VRJS0tDNzc3WlDz+eefR5PJhDBnzhz6R47jaG0Bku23X79+sqEOTk5OGB8fXydWlgEVRTqe53Hbtm1Fkq1g27dvX92KZwUF818WbHPnzpUsQiQ7NDm+Z88eVB47dozaFfz8/KBly5bU7vD06VO4fPkyyKFjx47g4eFRrOowdahc7NixAyZPnlzi340dOxYOHjxYAT2qHQgODgYXFxfZ40ePHpX8e+DAgZIqRsePHwf49ddfJcz98ssvJT5lCxcutFo44siRI8/kzEgKCOav25aUlIQPHjzAu3fv4u3bt4vVbt26JYnmKNiGDBmCWVlZVPog6TNIjbiCEAShWHu4olrdiicFERk//vhji3s6IikePHiQ7umMRiO+9tpr1EPF3t4eY2Ji/tNeDhgwgP7YyckJk5OT6c0yMjKwQYMGsi+nZcuWhYx/zwL0ej3evXsXt2zZgoMGDUKdTodqtZpqq0gtgKIa+Y3c+JIXVr9+fRw2bBhu2LABL168iI8fP7ZIii1btpSpoilparUa9+/fXwUjWz3B8zxGR0fTEt8Fx4vjOBw8eDCdgAVBwDNnzkiqHn344YcoCMJ/pLt9+zaNH2IYBqdNm0Z9xkRRxJ07d9JSsAVvplKpcPXq1SUuk1vTQFaauLg4XLlyJbq6ulZp6SiVSoUtW7bEDRs24L179zA3N7dYeziWZbF9+/bYrFmzIiumuru749OnT2v1ey0ujEYjjhkzRna8tFqtpM5fwZSUXl5e1HkETCYT8jyPb7/9NjV0cxyHN27coKTjeR67du0qWxDE2dkZk5KSarVxPCoqCseNG0edB6q6XhsJmCT9qFevnlXjLWlt27bF7OxsfPr0KTZr1kz2PA8PD7xx40ad/fX/cObMGavv+91335UoUL799luJlvP777+n40jdwFJSUtDd3Z2eNGDAAMne7sKFC5LSWAXbm2++WatmRL1eT9W+S5YsqTJylVdjGAbbtGmDqamptLrS06dPMSAgQLLisSyLHh4eePXq1Vo9iRYXoiiiXq/Hjh07WkxGSySC5ORkmlcoPT0dvby86ALWtWtXyTUp6XiexzVr1kgull+mFwQBJ02aJPtSOY6TZHyu6TAajXjlyhVs0qRJueyRqrq1a9cO09PTqZjM8zwajcZCK56bmxvevHmTnvesQxAE3Lx5M5VuLE1mGzdulCTrmj9/PpVEtFotnj9/XnJNSTydyWTCFi1aUJHF39+fVi0RBAHj4+PRwcHBohjDsiwOGDAAc3Nzq2TFI6KwpcqkJfl4yMe4fft2q/aYmtIYhkFPT0/ZssD5VzwXF5e6Fa4A0tPTLSoSlUolKhQKmpKSfG+RkZG0yivDMBgaGlqID5R0RP184sQJ1Gg0dL+wYsUK+kGLoogrV660aJEnfpv79++vEg+V3NxcTE9Px8zMzEKtqOxM+aHX63HhwoWoVquteuLUlEb26YGBgRYlETLJJCcn440bN+pWuAKYM2eObLp1hmHw1KlTkhoQw4YNo4RzdHTEuLi4QuNZKHKc53kMCQmhL8vOzk6Sckyv16Ovry+NFyrYGX9/f8zJyan40SiAiRMnWuyPUqnE119/vcjf8zyPBoMB58+fXyvESbm2evVqKo3UkUseRqMRIyMjUa1WW/yuSEpKAp7n8cSJE/S4Wq3G5cuXW7y2RdJFRESgjY0NLW4+ceJEyfEDBw7I1qQuWEC+slAepFuxYgWq1WrUarVVTo6KaizL4osvvmg1W1Ud/iPdsGHDqBhZcBxtbW0lKSlzc3MlKSmbNGmCeXl5Fq8tm4Jv3rx5kr3bxYsXJdrM/v37W83sLGe8rSiUlXQRERHo5OREa1hXNTkquvn7++PDhw+p50Qd/gOJEjh58qRshVa1Wk0N3cTktmbNGqoLIdusYqfgI8jMzEQvLy96s+7du0vyWF67ds3iikBuPHHixEqdSctKOqPRiA8fPsQOHTrUir1cUY1lWXRzc8OwsLA60uUDz/OYk5ODbdu2lXX3atCgAWZmZlIRPSUlhcabsiyLzz//PFU+WoLVtOrfffcdTZvOMAxu27aNzgQ8z+P06dNlPVUYhsGLFy+iyWSqFPKVlXQEBoMBx4wZU6R7Vm1pdnZ2eP36daruftbB8zyuXbtWdrwYhsHt27fT8wVBwJkzZ9LjGo0Gr127ZvUeVtOqC4KAQUFB1D3M29tbYkJITk6WjShnGAa7deuGer2+UlTQ5UU6o9GIBoMBZ82a9UyImQzDoIuLC4aHh9cq54bSIi0tzWqS2U6dOknG6c6dOxLT0syZM4vMbF5kqay//vpLctEFCxZILvr1119bdY/5/vvvK9SEQLz9J02aJBv3FxoaWuIV12g04vjx42XrldW2Vr9+fUxISLAqFtVmEO319OnTZRcRtVqNp0+fpmOk1+tx8ODBdB/n4uKCiYmJRY5fkaQTBAFHjx5Nb67T6TAmJoYeNxqN2Lx5c9mXSeTfioIgCJiZmYnDhw+Xdch+5ZVXqAxeXBDZvl27ds+EmKlSqbB9+/Y0eeqzBkEQ8NatW7Kp9khKSkI4QRDw559/php+lmXxq6++olWtrKFI0omiiA8ePEBbW1tq9Bs9ejR1hBUEAQ8dOoRqtdqiOMZxHF0dy2PFy1+04eHDh/jee+8Vy3NEq9XinDlzMCYmhq6Oxfm4wsLCarUJoWAbP378M7m3MxqNOHDgQNlxKZjfMi8vD5s1a0ZNCs2bNy92wZwiSUeKhnz88cfIMAwqlUrkOA7//vtvSgCDwYBDhgyRdQ/T6XT44MGDchFbeJ7H1NRUnDlzJlV2FGclyh/X9N5772FaWlqxSCcIAs6ZM6fKyVBZTaPR4ObNm8v8nmoayKolNy6ffvqp5PtdtWoVMgxDE/8ePXq02BJCkaQj0Ov12LBhQ9qJjh07Sox/4eHhVssgjxo1qkwrHSH/zZs30dPTs8wfl6+vL0ZFRRW5AguCgE+fPkV7e/tnYm+nUqnQ1tYWY2Jinom9Hc/zmJ2djc2aNZPVwjdu3JgqBHmex8TERHRycqIT+eDBg0t0z2KTThAE3LVrl6Qz+WdEknJM7mVyHId//PFHiTqXH8RgKSfGlrQRF7erV69aFafIav7WW29VafxcZZJOqVRiv379non6goIg4MqVK2UlJo7jcM+ePRIH+smTJ9N9nK2tLd65c6dE9yw26Qh69uxJbXck5RhxmiXpaKjmwQAAIABJREFU/CytCEqlEoOCgjAvL69EewaDwYAGgwHPnTtnNZ6vtM3FxQWjoqLoM8jh/Pnzz4RChTSGYXDXrl21vnx1YmIiOjo6Wnx+lmWxZ8+e1PPEbDbjtWvXJJ4nc+bMKfH4lJh058+fp5lrGYbBWbNmSTQ6mzdvll2mVSoVbty4sURii9FoxMePH6Onp2eFiHcqlQrbtWuHWVlZVvslCALWq1evyslQWY1lWWzcuDG1y9ZWhIaGyuax1Gq1ePnyZVpegOd5WiyVYRh0c3OjSaNKAgWihTpAViAIAkyfPh22bdtG/xYREQF+fn60iGRwcDDcvHkTFAoFmEwmye89PT0hIiICHBwcinU/nudh/PjxsHfv3pJ0s8RYvHgxzJ8/HxiGsXjcZDLBqFGj4MCBA6W6/ssvvwwuLi6gUCiKPFcQBEhMTITExETIysqCzMxMyMjIAACgvy84rhWF1atXw4wZM2THpaZCEAQICwuDDh06WDzOsixMmjQJNm3aBAAAoijCvn374LXXXqPH165dC1OmTCn5zUs6M5hMJnz8+DE6ODhQ97CXXnqJyrw8z+Nff/2FLMtajEIg2sPiorLEOnt7e0xJSZHthyiK+Mknn5T6+leuXEGe5wsF2Vpq+U0apIWHh+OcOXMwMDAQbW1tK23F8/DwqJJQrYqGXq/H3r17yz63k5MTJiUl0fNzc3OxUaNG9Hi7du1KLXaXmHQEq1atkoiRJ06ckCyzo0ePlg3+U6lUGBERYVVsIR/eyJEjK4V0DMPgypUrrfanLPkkr1y5Ui7ucCQPx4YNG7B58+ao1Wqp/2tFKHpIOgISpFnTQbZBO3fulA3GZhgGV69eLdk2LVu2jBrONRoNnjp1qtT2zFKTLi8vD/39/WlnW7duLcl/GRMTY9GoTPwjhw4dWiTp0tPTUa1WW1wxy7uRvZ0cTCYTHjx4sMpJRz5+4uEeHR2NgwcPRnt7+wqZnBiGwZYtW9Lo6JoO4mnk6+srK4kFBASgwWCgYxwXF4c2NjY0Wnz06NFlCgIuNekEQcADBw5I0tF988039IMwGo34wQcfyPouchyHx48fl32ZJpMJ9+/fX+FkK9iePHlisT+iKOKxY8eqnHRySEpKwpEjR6KtrS1qNBrZ4MvSNuIMUdPB8zwuXLhQ9jlJlmYCQRBw3Lhx9LitrS1GR0eXqQ9lIp0oijhgwABKPFdXV0xNTaX7ECIHy3mqtG7dGnNyciy+TFEUcd68eZVOuuPHj1ucwao76Ui4VWRkJAYHB5cr4QAAp0yZUivsdnFxcVbd+gYMGCD5Hs+ePStZND766KMym1BKTTqCmzdvSh5i+vTpko+WZIeWe8gvv/zSIulMJhOOGjWq0km3fv16i4NaVtJdvny5WC+L2IPIxFXavdSaNWvQ3t5eNt6xpM3V1RX1en2J+1FdQOyNY8eOlXVo1ul0GBYWRpVYer0eg4ODqcKwQYMGsotESVBm0pFg1vydv337tuRhu3XrJvsySXbogjCbzTho0KBKJ93777+P9+/fx8jISEm7f/9+mRQpv/zyS6FryrX79+9jbGwspqamotFoLBXpBEHAe/fuoY+PT7nYNxmGwd9//71M30pVgud5PHPmjGwUAcMwOHPmTEle0K1bt9Ktk0qlwh07dtAJsSwoM+lIeWRXV1ca5jBo0CDMy8uj+7Xz58+jWq2WDb158803C4VEVBXpqluzs7PDSZMm4blz5zAxMZF+EGTvXBQyMzOxS5cuyLJsmTx6lEolzps3r6yfS5WhYG2Bgs3FxUViMsrKysL69evTVa5bt27ltqctM+nI3m7t2rV0FlGr1fjLL79QdSvP8zhp0iTZRC8sy2JYWJjkoURRxNdff73KP/qqbvlnWoZhsF+/fnj58mXMzc0t1oxLtHU9evQoU/JcUlu+pmLr1q1WV/x169ZJTABz585FhUKBDMOgVqvFM2fOVB/SERgMBmzevDkqFApUKpWF8l8mJCRY9HEjbeDAgZKNuiiK+Pnnn1f5R19dm5eXFx4+fJjuMcj+Tw45OTkYGBhY6sInpKxXXl5ejQpyFQQBMzIy0MvLy6JYqVarsWXLlvR8o9GI0dHRyLIsDdspSbqP4qDcSMfzPP7222805o5hGFy6dCk9LggCLl261OqM/vPPP9PzRVHECxcuVPnHXV0bKULo7e1NS1ZbKhKZ//3cu3cPHRwcSmXPI04NFa2FLW8YjUacO3eu1SiCU6dO0fMFQcDhw4fTZMoODg746NGjcu1TuZGOYOjQoTQKwdHRkeaMIC5ivr6+svkyyeqYX8vXuHHjSjGO1/T2v//9D7OysoqMliDbgNLeZ9u2bTWCdKSPUVFRFp+XRAkMHz6c6hN4nqc1xcmktmzZsnI3lZQ76cLDw2mBSaVSiW+88QYlndlsxv3798tqj0jthPwvdcmSJc9EHFtZG8dx2Lx5c4yNjbX6kQiCgE2aNCn1fRYsWFAjSEfKRIeEhMhO8jqdjrojCoJAszQTpZ+fnx8aDIZyF6fLnXSCIODcuXOpJ4pKpcLLly/TfYfBYMDnnntOtvSQnZ0dPn78mF4vLS0NHRwcEADK3eBbG1v9+vUxLi5ONo+lKIq4Zs0aGqxa0uuPHTsW09LSMDs7u1xbaUJkrEEURTx16pTsc6jVaok21mg04rp16yTH9+zZU279yY8KIV1GRgbWq1ePatx69+5NY5IEQcCrV6+iTqeTdTidNGkSvZ7RaMQNGzbUEa6YjWVZDAgIoKJmQZhMJkxMTESO40o1pkQsI3ue8motWrQoVzezvLw8bNOmjexzeHh40HLEiP+VxHJ2dqbH+/XrV2Fub+VOOoItW7ZIxMLdu3dLZrJp06ZZVWFfvHhR8tEMHz78mUj+Wl7tvffesypmtm7dulqJ7S1atCgXsTW/CUvOLsxxHH733XdUGjAajThz5ky6SGg0Glr+uyJQYaQTRRE7dOhAH7Zhw4YSE0JqaqpVE0KvXr0kbkc5OTkYFBRU5R9HTWl2dnZWSTdixIhqlWipvEhnMpkwLS0NXV1dZfdyHTt2pCkkeZ7HO3fuIMdxVOs+depUmqKhIlBhpBMEAf/880+6KWUYBhctWkSzegmCgF9++SX1Yik4OAzD4I4dOyQeGLm5udS7gog5Vf2xVNemUqkkpZwKYvLkydVKK1yeK92MGTNk70MM3QQ8z+PQoUPpcUdHR0xOTi5zP6yhQlc6nufxtddeo54qOp0OY2NjqQjA8zw2a9ZMdkZq3Lgx5uTkSBx/jUYjvv3221RDWtUfS3VtSqUS7969K/t+aivp7t69a3UyHjt2rERsPHz4sOR8Erxakagw0hE8fPgQ7e3t6UONHj1aolU7ePCg1b3awoULLYpJERERGBQURNNCEBOFXLHKZ60plUqrqeGmTJlSrcaprKQzGo20toCc54m9vT3GxsZSSSs3NxcDAwOp1NS0adNKiZCvcNIJgoCLFy+mD88wDP7999/0uNFoxMGDB8u+DJ1OZ9EjgKyWCQkJOH78eGzcuDE6OjrWke4ZJZ0gCPjrr79arUXw6aef0igCsr0hbnFqtRoPHz5M7ckViRJnAyspzGYz8DwPTZo0gaSkJAAAaNu2LZw+fRoYhgGFQgERERHQsWNHEAQBRFGU/J5hGHjllVdg27ZtwLIsKJVKq/fLzs6GR48eVVq2rOoMX19f0Ol0Fo89evSIZhirDmBZFvz8/EqddUyv10O7du3g3r17kr8rFApARGjUqBHcu3cPNBoNAAAkJSVB06ZNITc3FwAABg0aBPv37weWZcv2IMVBhVIa/79nwK5duyQFJjdv3kxnHEEQ8J133pH1VGFZFk+fPl3sIND8HjDPaiuq5BU5XtX9zN/fsqx0K1askN3LKRQK3Lt3r2Q8pkyZQsVKnU6Hd+/erbTI+AonHYHBYMDu3btTT5T69etLSmhlZGSgu7u7rPgRFBRUoyOX61AxILUmHB0dZZPG9urVi57P8zxeu3aNHuc4DmfPnl2pfa400vE8jxcvXkStVkvjw+bOnSs5vmHDBlnSqdVq3LRpU2V1tw41BKS2AJGgCn43Wq0WL168SM83GAzYp08fetzV1bVC6ydaQqWRjiA0NJSWGGIYBqOioiTLfps2bWTdw8jqWBuyUtWhbCCKtBs3bsjaeRmGwSlTplBtpSiKuHv3bkpQlmVx06ZNlR4fWOmkS0xMRHt7e+pzFxISIiHR77//btE9jAwSqZ1Qh2cbJpOJZmmWS2psb2+PycnJ1O83JycH/fz8KCHbtGlDtZmViUonHc/zuGLFCuQ4jrbjx49Lsum+9tprsh4nHMdhZGQkVdDU4dmEIAj4448/ym5HVCoVrlq1SnJ+ftOVVqvFP//8s0r6XumkI5VbmzRpQsN/2rRpQxMZiaKIkZGRqNFoZMWGkJAQmqquDs8mcnNzJUVKC7YmTZpInDDi4+PRxsaGHh85cmSVTdqVTjqCAwcOSMTINWv+X3tXHtXUlf8vSV7ey8IaEFBRGBekihVHUakiOq7FZdRaO23RdkRtx7pAtfUHtlM76BTb2jJTl1Z73HXUWq1dlBY9uKCWOYiO01Z76g6oVCiFLG9J+Pz+mHPvJJAEdKwE6+ecd9CTvOTdm/u597t//+7iEsjOzvYaqXLgwIEHYuavEDQzYMmSJR4jT7RaLXbv3u0S1Dx16lSWDa7T6XDhwoUW67vXYqRTFAUjRoxgkxUSEoLq6mr2el1dHdq2beuRdA8//PADF8KvELIss1PLE+lGjhzJKl4rioLjx4+7NHLMyspiBWVbAi1GOofDgTNnzrBkVrVajTlz5rgku27cuNFj9SqO45CXlwdRFB/odr8i0FPLm2vp7Nmz7P2iKGLAgAHs9bZt27o0umkJtBjp6C70wgsvMGuSVqvFN998w8y7iqIgKSnJYyxdUFAQqqqqHpDuV4Rjx455TX6eM2eOywm2ceNGF9vAxo0bW1wtaTHSUVRVVcFkMrFJGTVqlIsCfOLECa8NH+bOnXtf98R+gP9AlmVWpdmTWBkcHIyqqiomWtbW1iIqKopt6ElJSS09DAA+QDpFUfC3v/3NxdS7Z88e9npT4oRWq8W3337bgiN4gHsBu92ODz/80GPzS7VajZUrV7pUFV+0aBGToniex/Hjx1t6GAB8gHQU3bp1Y2kZXbt2hdVqZWLmlStX4O/v79Fvl5qa2qgXwgPcX6irq0O7du3cOsFVKhUrbERVjStXrrA4X41Gg6lTp/pMZWqfId3+/ftZWyeO4/DWW2+5ZCHk5OR47HPHcRx27dp1X/RPewD3WLRokccTTqPR4Msvv3Tp6T558mS2ngwGA8rKynxGDfEZ0tFaFVT+DgwMdOmiIssyOnbsCELc17/s0qVLi1ulHuDuQ5ZlXLx40WNpDlqlmYLW5nEOpli2bFkLjqAxfIp0586dgyAIzE0wc+ZMl9d37drFYjbdRaosX768BUfwAL8EFEXB5MmTPf7uPM+7tCO2Wq3o3bs3ez06OtrnNmOfIR0FrQ5NJ62kpMTFmjl06FCPYobRaGS9Ex6gdYNGkuTn53tVK2h9T1q8as2aNUxF0Wg02L59u9feDi0BnyNdXV0dwsLC2OTS6tAUJSUlbv00tLH99OnTfUZhfoA7B3URJCQkuN1kNRoNIiMjUVdXx4oJ0URompEydOjQZjfPvJfwOdIpioK1a9cyJVitVmPr1q0s5s5ut2PWrFkeTccajQYlJSXMbOwrUBQFtbW1mDx5Mvbv3w+z2cx6vfnaTuwLsNvtLr0F3P3OH374IXu/LMuYP3++y0n4z3/+swVH4Bk+STpZltG7d29WVq9Dhw6wWCzMkvnjjz/C39/fY3hYSkoKRFH0qcV848YNmEwm8DzPCvCOHDkShYWFPqdz+AIa9hZoePXt29dFojl37pyLsYUmr/oifI50FIWFhS6yfE5OjguJVqxY4bXY7NatW30iPIxGRzz99NMeM+KHDx8Oi8Xis4vkXkKWZYii6LFQFe1FcOzYMSYlSJKE8ePHM8t3UFAQKisrfU6spPBZ0imKgilTprDJFgQB5eXl7HVZlr32WWvXrh2sVmsLjuC/z/nJJ5+A53m3pDMYDBgwYABycnIekA7/7RhL1Qt3m9STTz7pEp+7b98+Vp5fo9EgLy+vRTLCmwufJZ0sy7h06RKMRiMTx9LS0lxypPbu3Qu9Xu/WuqXRaLBkyRKIotisHU+WZZjNZhQXF9/Vxa8oChITExsVzqGRFMOGDcNTTz2F2tpanziZWxqSJCE1NdXjZqrT6XD16lX2fne97n095ctnSUetTkuWLGFGE41Gg2PHjrGQL1EUMXr0aI/1MnU6HcrKyppFOkmSsH//fty4ceOuko4WzqFikbOY5Ofnh/j4eJbF7Kvi0L3EJ5984rUXwZIlS1zm6Z133mHzq1arsW/fPp894Sh8lnQUNpsNbdu2Zc7RxMREF93um2++8Zrq8dRTT3ldzJTA5eXlGD9+/F1//vPnz8Pf3x8GgwGPP/44EzPVajXi4+MRGhqK/fv33/XvbW2gXXq7devmUayMjIxkoV52ux1VVVUIDg6GSqUCx3EYPXp0Sw+jWfB50smyjC1btjBxjOd5rFu3jr1ut9uRmZnpkXQcx+Hw4cMeP19RFNhsNgwdOtTFBH23IEkSvvnmG5SXlyM1NRUmk4lF3cTExGDgwIEuHUF/rbDb7ax1midX0JYtW1wqQs+ePZs1j+F53mvvBl+Cz5OOYuDAgcw6RetfUr9dTU0NTCaTx1Jsffr08ajbKYqCefPmISoqCu+///4vLubZ7XYcOnQIOp0OOp0O1dXVD3Q5ALdu3YLRaHRLNq1Wi0GDBsFms7Hf51//+hd7TavVtqrSjK2GdMePHwfP8yza4OWXX3apx79q1SqvUehr1651K+sfPHgQPM8jOjqaOat/SZ3AZrPBbrdj9uzZWLlypU9b2e4l/vSnP3k84QRBQHFxMdtkZVnG7373O3AcB61Wi9DQUNTU1LQa62+rIZ0sy5g+fTprUysIAi5cuMDqXyqKgh49engsrx0REYG6ujq2yGVZhiRJGDBgALRaLZYtW4atW7eiqKjonqQIff/99253ZnoiUzHqbp+8DVtB0ZhFmovmXNDn7NmzbK5+KSiKgtOnT3tUD7RaLaZPn87eTwPfndWH1atX/2LP90ug1ZBOURTcuHEDer2eJSZOmDCB1b+UZZlVh3bXd43nebz88suwWq2orq7G9evX8dZbb7GSbDqdDi+99BJu3rx5T0jnqauOzWaD1WqFKIosquZunoQNRVm73Q6r1QqbzQZJklBXV4fKykpYrVbk5eUxF80vBZvN5tJboOGl1+tdUrxEUWQpXoQQ9OzZs9VJCr94f7q7jTfeeIP8+c9/JrIsE0IIOXjwIElOTiaE/KcX2eOPP04+++wz9vrtguM4EhYWRmbNmkXmzZtHdDod8fPzI35+fqS+vp5otdpmfY4sy8Rms5GCggKyY8cO0rNnT0IIIaNGjSImk4kQQsiGDRvIgQMHSEVFBamsrCShoaGkoqKi0fP06NGDpKSkkEceeYQMHjyYcBxHNBoN4XmeACB+fn7E4XAQURSJ3W4nlZWVZPfu3aSgoICcP3+eWCwWEhoaSuLj40lBQQHp0qUL6dy5MwkODiaCIJA9e/aQqKgocv78eSKKIomJiSFDhgwh586dI7t27SIGg6HZ424Iu93O5g8AcTgcpLa2lnz33XcEAPn0009JXl4eURSl0bjVajXJysoiL730EvuMt956i7zyyiusT+Hnn39OhgwZcsd97VoCrY50siyT2NhYcvnyZUIIIQkJCeTkyZNElmVy8uRJkpeXR/Lz8xv9iM1Fwx9PEASycuVKMnnyZKLRaJrdNPCrr74iY8aMYaTw8/MjiqKw++m019fXu/1LQd+vUqmIw+Eg4eHhpLq6mvj7+5MZM2aQjIwMUlxcTCorK0mvXr3IxYsXydGjR4nFYiFFRUWkvLycSJJEJElyWfz0L/23Wq1m5KXfm5CQQDZt2kTCw8OJ0Wi8o/m0Wq3EarWS/Px8sm7dOlJaWkpEUSQASH19PVGr1cThcDRqBqpWq0l0dDR55plniEajIVOmTCEcx5HY2FgiSRJRqVRk4sSJZPPmzcTPz69Vka7ViJcUsixjx44dEASBWa46deoEQRCg1+sREBAAo9HoMQvhTi+e57Fz506m83iCw+HA6dOnYTAY3Iq5ycnJKCsrw4YNGxAeHg6e5zF+/HgEBgbeUTtijUaD3/zmNzh+/DgzBDkcDkiShCNHjuDo0aMoKyvDwIEDvVbMbup64okncOvWLSb2egLVDc1mM9atW4eIiAivzm5v49q1axf7XEmSMG3aNBex89KlS3d1bd0rtDrS0RSf4cOHQ61WQxAEhISEoKamBoqiwGw2o7y8HEaj8a721KbluptKijSbzRAEwWPv87i4OKxbtw5jx46FyWSC0WhkmfLuMqObulQqFYt2mT9/PiPezZs3UVlZic2bNyMlJQWPPPLIHS1+etHE0ISEBFRUVHgcvyiKOHXqFDp06MAKCd/J7zBy5EgXchcVFbkYyBYvXuxTWSS3g1ZHOopTp065LKL58+fj5s2bSEtLw9q1a5GVlXVbi4ySRKfTMeOKp4zlFStWNDL1Uwvgzp073X4vTel57bXXIMsyvvvuO1RUVOD69es4efIkevbseVdO5q5du+LixYuwWq2orKxEVlYW2zCo5ZcGGXjL0mjq2rp1K8xmcyNr8Pbt25s1786hffRSq9XsuYqKiticiqLIig5rNBqEh4cz10trRKslnd1ux/PPP89+RK1Wi3PnzrFwIlmWXcppN3VxHAee5xEeHo6kpCR2grojT0BAAGpra12sj9Tc3r9/f4/dhhISElBTU+NS5UyWZXzwwQfo2rXr/3QSOc9DUlISioqKcOvWLVRUVODMmTMoLi7GpUuX8PXXX2PNmjWYMWOG1yK+TV2CIGDQoEEuvrOioiIIggBBEJo139TPptPpoNfrERgYiIceegiTJk3CqlWr2GevX7+eEY7jOKxfv55li7dGtFrSybKMW7duISAggP14Y8eOZSZuRVHYIvC2owuCAJ7ncerUKXbfpUuX0L59e7cnHRWzSktLXX50SZK8tm8WBAELFixoNA5RFHHr1i3WFtqZ3IGBgUhOTsbhw4eRn5+PWbNmITIyki1sb+PatGmTW92TjnHMmDEu46NpMVqtFnFxcQgODmbzynGcx8JAGRkZbJPLyclBmzZtPAYpcBwHf39/REREYOrUqfjoo48gSZLXlmc2mw3t27dnJO3bt2+riTzxhFZLOnpSvPvuuy5iyp49e5hzV1EUTJs2zavYptfr8frrr7ucPHa7HT///DOCgoLcLp7ExMRGxW0tFgt69Ojh8Xt++9vf4uDBg43GIcsyXn755UZ6D8dxiImJwezZs9mipvpsZWUlkpOTvZLu1Vdf9Ui6L774gi1i55NYq9UiOTkZ8+fPh81mg8Viwc6dO9GtWzePOmpiYiLz8Y0ePRrh4eEexWtBEBAQEIAtW7bAYrGw5i/eSLd48WImegqCgGPHjvl86k5TaLWko1AUBbGxsWxRxMbGuvwoZWVl0Ov1bsUwjuMQHR0NSZIY4URRxNGjRxEeHt7o5NFqteB5Hnl5eezzadTIxo0bPeqAgiBgzJgxuHnzZqPnLysr85jcumzZMlRUVLhEidDna9u2LQsEoEG/lEhDhw7Fpk2b3Oo8oiiiT58+bknRpUsXPPXUU26Tf9PS0txuXjzPY/PmzVAUBX/5y18wbNgwBAYGskwKT5tCu3btsHTpUpjNZkY+501MURRcvnyZlezQarVIS0v7X5eLT6DVk06WZXzxxRcu/cfefvtt9rqiKFi0aJFb0sXExCA7OxuiKMJqteKnn37CpEmTmMGh4UmQmZmJpUuXNhJv6uvrMWjQII/dhcaOHYvc3Fy31rYXX3zRrQ6UmZmJDz/8kIWFiaKIiooKJCQkMHLRMVPCaTQaJCcn49FHH2VWzIbYtm2b21QoWuA3Ly/PLemsVqtLJEhDssqyjMrKSowYMQJDhgxp0lBDN7CwsDAUFxc3CkiXZRlPPPEEE2v1er1Xq2lrQqsnHcW4cePYwjMajaxGhs1mQ69evdz+6HFxcaiursaBAwdgMplcdma6mOnC6N27N9avX9/oexVFQWFhocfFxXEcUlNTUVhY6KID0upgVF9yJjfHcQgJCUFFRQXMZjPOnz+Phx56yOX5qC5qMBjQt29faDQapKamIjExEdevX3f7nKIookePHm7JYDAYEB0d7XF+FUVBv3793IrbgwcPhtlsZmXwZs6ciblz58JkMrENgpZI9DRP48ePx88//8zIV1BQwCyuPM8jJyen1VorG+K+Id2FCxdc/F2zZs2CoihYtmyZxwI3Op2OZZir1WoXnYXqEPHx8XjzzTexevVqt1W77HY7UlJSPC6mQYMGYeHChY1iGCVJwp49exotRI7jkJGRgaysLHz99deIiIhg5Sqcx8HzPNq3b4/4+HgYjUYsWLAAvXr1QlVVldvnFEURL774okexLzw8HPv27fM4v7Isu7XmajQajBo1Cna7HfX19S6k6du3L0aNGoXg4OAmfZCCIKBDhw64fPkybDYbevfuzRrKREdHw2aztXoDCsV9QzpRFJGRkcEMAoIgoKSkBCNGjLgjf5RWq8Xvf/97JCUlobq6mkV6NMSxY8fciofUUrdgwQLcuHGj0X02m83tIn7ooYfg7+/vdXHyPI/OnTvDYDDAZDKhX79+rNJxQ1B98IcffnD7nG3atEFCQgJeeeUVrxEetIWwO/Fy3LhxHu/79ttvsWfPHgwcOJCdet4y/TmOc3EF8TyPbdu2NXMVtA7cN6RzOBysOjQlXufOndluebuk43keoaGheP3113Hp0iVWfaqNMHrOAAAN30lEQVQh0tLS3C5mjUaDkJCQRqUDKbZt2+b2Pmqw8fRc3bt3h1arRUhICHbs2IH169ezMnTuvoeWqevfv7/bzzUYDAgLC8OBAwe8RngMGzbM7f2RkZFeDRw2mw1XrlzBo48+ioCAAAwePNirf5C6Kej/U1JS7psTjuK+IR3FmjVrvO6kd3pFRUXhhx9+gN1uZ6IObThPjS7OhhedToeUlBR89tlnLi4Mq9WKmpoa5gdr7vfTCBmj0YilS5ciKSkJ165da3I+FEXBkSNHYDAYXBYztQgKgoCYmBiP9zscDhQXFzd6Hhp69uabb+K9995r1nOcPXsWnTp1QmRkZJOGFhqdUlJS4tWl0Bpx35FOlmXEx8ffddLROMKPP/6YuRjeeecdF5N9YGAge39GRgbKy8sZ2URRhM1mw+rVq1kdkNs5gVNTU7FmzRpkZWXh1VdfhSRJzcr7E0UR8fHxLA+x4aI2Go347LPPPN5/+PBhj9bOFStWICAgAKWlpU0+h3Oo2O7du9GjRw+vm45Go2F6eWvJCG8uWj3p6ClisVhw4cIFj119nMUXg8HAojoMBgN0Op1LWFJTO3BBQQGsVivat2/PDDDUOkfdFjk5Ocz/5HA4UFlZiccee+yOSW8wGJCWlsYMFk2BLtY1a9age/fubkmj0+mQm5vrQl46nzabDbm5uW7JQDskPfHEE9ixY0ezyG+z2Vht0RkzZjTrZK+qqvqf1oav4r4gncViwaFDh9ClSxdoNBq3znB6tWvXDnV1dSwFhQbsVlVV4dChQ5gwYYLX+9VqNRYtWoQdO3YwgqrVauj1eiZmmkwmLFy4kBXSsdvtKC8vR1xc3B2TLiAggBk6mku6mpoaJCcnu9XFjEYjQkNDUVFR4aKriqKIa9eusTIWDe+jOufRo0dZsaDmRPuLogiLxYIXXnjBbaRPw2vixIn3nS5H0epI5xyuZTab8cEHH6Bfv35YtmwZiouLYbPZWI87ZxcANa4sX77c7Y9JTyRJkrBhwwa3ZKOfMWvWLIwbN465FZxJyvM8jhw5ggMHDrAF/Oijj0Kr1cJgMLi8j24QHMdBp9NBEAR24nqKdTx9+nSz/FV2ux179uzBoEGDGjn5TSYTJk+ezMLfaJB4dXU1Zs6c6VXs43keMTEx6NSpE06dOtWs30uWZVitVgwbNszj51J/nMFgQOfOne9obbQWtDrS2e12lk1Ag3dpmgddPJ06dWKOcmexMjY2tlHMJAU9kaqrq92eSCqVCoGBgejbty/S09MZabRarQvpjEYj0tPTWRjT888/j5KSEma2d/48Pz8/TJkyhZ2Op0+fxrfffou4uDiPsY7du3dHXV1dk/MkSRLmzZvXKDCaOt+1Wi1KSkpgNpuxfft2BAYGspPbG+natGmDsLAwfPnll8064cxmM9LT01nYnTfSTZgwAevXr8esWbPuaG20FrQ60jWFvXv3QhAEzJw5E1qtltW412g0WLVqFXuf88kmiiJqa2uRnZ2Nfv36eeyuo9frMXnyZEyaNIk5madOncpOJ47jsHDhQpSUlDR6LlEUkZqaCkEQoNPpwPM8dDodunXrBpPJhM2bN7ucYHPnznVJhqUk5TgO48aNY0aJhqC+RKvVioyMDAQFBbmMhwYPxMXFwWg0wt/fv0ky0I2lU6dOHmMznTdBWov02WefbVKMpBtXr169kJaWhpCQkGZZZVsz7jvSzZkzBx07dkRGRgbbuVUqFbp27doooFZRFFRVVWHhwoUsladhzwHnHf7jjz/GqlWr0L9/f2g0GvTs2RPt27dnPr2AgABkZ2e7PYkkSUJISAh4nkd8fDw4jsNjjz2GpKQkPP/8843KQEiShJycHJdkT2qkEQQBGzZscGvVoyX2rly5wtpHNQxvczYYNZQI3JHOYDBgzpw5yMjIgNVqdSsp0M6pX3zxBStD0RzrrHP2QXJyMgoKCu5JNbaWxH1Hur1792LFihUIDAxkaSYcx+G9996DzWaDKIq4ceMG3n33XRcTf8OL6lS098C///1vFBcXY/fu3Swmk54S0dHREAQBPXv2xLZt29xmlOfm5kKj0aBdu3bQarVo06YN/P39kZqaigMHDngcz4wZM9CxY0cEBwe7GCD0ej1u3rzJyEpPPovFgo8//rjJxe4s5lIi0rFSkTQoKAjDhg1Dbm4uLBYLK2funJFhtVqxcuVKdO3aFUFBQU0692lEDcdxMBqNWLx4MUaMGHEvlobP4L4j3V//+lfk5+cjMzMTgiBArVajQ4cOOHnyJPr06QN/f/9m6S7UiKHX67Fp0yYsX74cFouFpbhQowctw6DX6zFt2rRG0fJ2ux0//vgjc0tQJ3deXh7Gjh2LjIwMr7qRKIpYsGABKyfvfEJkZ2cz6+2KFSuwYMGC23a6U/Fbp9Ph6aefxuLFi9GhQwcMGzYMTz/9NE6cOOFS/JYS/B//+AeioqLYSeU8p96svxzHISAgAHq9HosWLUJBQQEuXLhwL5aGz6DVk865RofD4UBhYSGuXbuGkpKSO6p+5ZyX1rNnT5w5cwbHjx+HLMu4efMm0+WeffZZltHAcRyCg4PdBhpLkoTc3FymG8XHx6NDhw5QFAUfffRRk+NzOBwoLy9nemBwcDA7Kagl9bnnnkNERARSUlJgNBphMBhY7KfzuOh9VKRUqVSIiYnBY489Br1ej4iICOTk5ODTTz91OUWpc3/btm0uYXbOuuyQIUOYgalh4DgV2fV6PebNm4d58+Zh/fr1973u5gmtqFige9BajfX19USSJGK1WklWVhY5c+YMqy15O1Cr1SQxMZHk5uaS69evk6CgINKtWzfi5+dHvvzyS6JSqUjbtm1J9+7dCc/zRKfTkT/84Q9kwoQJxM/Pz+1nbt++nQAgq1evJv/3f/9HDh06RACQMWPGNPk89fX1pE2bNiQ3N5csXryYWCwWMnjwYFJYWEjq6+vJ2bNnyVdffUUmTpxI0tPTiaIoxOFwEJVK5fI8arWa6HQ6EhUVRWJiYsjnn39OeJ4nZrOZ1NfXk8zMTDJnzhwSGBjI5vTMmTNk586dJDg4mFitVnL48GFSU1NDVCoVUalUxG63k+TkZBIZGUny8/PJ119/7bbIr0ajIWFhYSQiIoKYTCYyc+ZMEhwczArG/trQaorN1tfXs8Ko9fX1rCjriRMnyNKlS8lXX33l8n5BEFhBU+fFRxcFLU7KcRypr68ndrud9OrVi1RVVRG73U5WrVpFRo0axYq9SpJEhg8fTkpLS8natWvJmTNnSGRkJJEkibzwwgtEq9USPz+/Rgvp4MGDJDU1lTz33HNEpVKRl156iZhMpmYXraWQJInk5eWRsLAwcuHCBTJq1Cjy2muvkcOHD5OBAweShx9+mGzbto0EBASQq1evsqKxtIgsAKJSqYhWqyXDhw8nR44cIfPnzyfZ2dluvw8AkWWZfP/992TSpElEp9ORXr16kfDwcJKQkEDeeOMNcu7cOVawNjY2lvz444/k1q1bbA70ej1Rq9VkypQpZMqUKaS2tpaMGzfutsZ9X6KFTtjbBjVIWK1WlJWVISUlhcUPeiqTEBkZiXfffRejR4/2WBMkPj4e2dnZmDFjBg4ePIgrV664GAsovv/+ewwePBhXr15FXV0dK6pDi696ihKZPn06unfvju+++w6bN2++494AtMeBLMs4e/YsSktLsXr1albMlTqX6bicS9r169cPBoMB/fv3R0lJCRMXvUV80DIUNTU12LdvH+bOnct8eYIgoHPnzsjMzERCQoKLfkvFznHjxuH69eusvoskSfddDOWdwudIRxe7JEksXs9qtWLfvn2Iiopilja6uKghg+oOtDqYc+S/s7LPcRzmzZuHI0eO4JFHHkFgYCB2797t8XloHt0f//hH5OfnQ1EU/P3vf2eZ0t7GYTabER4ejitXruDzzz+/rUVH9VRFUXDu3Dls3boV6enpmDhxItPNqJ5G9aXQ0FDMnj0b58+fR1ZWFmJjY/H2229DFEX89NNPzSI7tUoePnwY6enpCA4OxsiRI7FlyxacPXsW06dPR48ePZjvkOqqffr0wZo1a1gmxgN4hs+RjnaRsVgsuHr1KhITE1mlL0oa6uyeNm0a5s+fz5I6qZ+NLgZ6T2RkJLp06YIBAwYgMjISM2bMQGlpKeuK487ZS0Fb7WZmZjITOY3b9EY6WZaxatUqnDx5kt13O/4nmslANyHqdHbOnaMEOX/+PMLDw3HixAl28qanp6O8vJy9t7l98Oh3OEf40Mtms8FsNrPUJnpqOzvGPeUdPsB/4TM6HdVBHA4HuXbtGhEEgdy4cYMsXbqUtG/fnvj5+ZF27dqR5cuXk9raWkIIcWmE4Qw/Pz9iMBiIyWQiTz75JOF5nsTFxZHU1FTC8/xtPZcsy6S4uJh06dKFmEymZjeqsNvtZMuWLeSZZ565re+7U8iyTBYuXEiWL19OLl68SDp37kw0Go1H484DtBx8hnSKorh0jSktLSVHjhwhe/fuJSUlJcyA4nA4CAASEhJCzGYz0ev1RBAEEhYWRvr3708KCwvJ4MGDyYsvvkgiIyOJTqdj5FSpVEStVt/Wc9ntduJwONh9zSWdKIqEkP8YdO4FJEkiNTU15OrVqyQ+Pv6efe8D3D5ajHQAiM1mI0VFReTixYukrq6OfPLJJ+T48eOEkP+0hnJ+NLprJyYmksuXL5PQ0FDy/vvvE0EQiMFgIDExMS0xDJ8DtdY+OOF8F/8PsNBDZkz2H/gAAAAASUVORK5CYII=;" parent="1" vertex="1">
          <mxGeometry x="121" y="110" width="61.67" height="60" as="geometry" />
        </mxCell>
        <mxCell id="rsilXhcYcWH-N2wlFC1x-26" value="&lt;font style=&quot;font-size: 13px;&quot;&gt;Upload Avatar&lt;/font&gt;" style="strokeWidth=1;shadow=0;dashed=0;align=center;html=1;shape=mxgraph.mockup.buttons.button;strokeColor=#666666;fontColor=#ffffff;mainText=;buttonStyle=round;fontSize=17;fontStyle=1;fillColor=#008cff;whiteSpace=wrap;" parent="1" vertex="1">
          <mxGeometry x="271" y="340" width="150" height="30" as="geometry" />
        </mxCell>
        <mxCell id="rsilXhcYcWH-N2wlFC1x-37" value="&lt;b&gt;Username&lt;/b&gt;" style="text;html=1;strokeColor=none;fillColor=none;align=left;verticalAlign=middle;whiteSpace=wrap;overflow=hidden;" parent="1" vertex="1">
          <mxGeometry x="272" y="150" width="90" height="20" as="geometry" />
        </mxCell>
        <mxCell id="rsilXhcYcWH-N2wlFC1x-38" value="&lt;b&gt;Password&lt;/b&gt;" style="text;html=1;strokeColor=none;fillColor=none;align=left;verticalAlign=middle;whiteSpace=wrap;overflow=hidden;" parent="1" vertex="1">
          <mxGeometry x="272" y="210" width="60" height="20" as="geometry" />
        </mxCell>
        <mxCell id="rsilXhcYcWH-N2wlFC1x-39" value="&lt;b&gt;Retype Password&lt;/b&gt;" style="text;html=1;strokeColor=none;fillColor=none;align=left;verticalAlign=middle;whiteSpace=wrap;overflow=hidden;" parent="1" vertex="1">
          <mxGeometry x="272" y="270" width="130" height="20" as="geometry" />
        </mxCell>
        <mxCell id="rsilXhcYcWH-N2wlFC1x-40" value="********" style="strokeWidth=1;shadow=0;dashed=0;align=center;html=1;shape=mxgraph.mockup.forms.pwField;strokeColor=#999999;mainText=;align=left;fontColor=#666666;fontSize=17;spacingLeft=3;fontStyle=2" parent="1" vertex="1">
          <mxGeometry x="272" y="230" width="280" height="30" as="geometry" />
        </mxCell>
        <mxCell id="GvttvYzGcyHAMuWZ70dD-1" value="" style="shape=image;verticalLabelPosition=bottom;labelBackgroundColor=default;verticalAlign=top;aspect=fixed;imageAspect=0;image=data:image/png,iVBORw0KGgoAAAANSUhEUgAAAawAAACGCAYAAACBiL5IAAAACXBIWXMAAA7EAAAOxAGVKw4bAAAJtGlUWHRYTUw6Y29tLmFkb2JlLnhtcAAAAAAAPD94cGFja2V0IGJlZ2luPSLvu78iIGlkPSJXNU0wTXBDZWhpSHpyZVN6TlRjemtjOWQiPz4gPHg6eG1wbWV0YSB4bWxuczp4PSJhZG9iZTpuczptZXRhLyIgeDp4bXB0az0iQWRvYmUgWE1QIENvcmUgNi4wLWMwMDIgNzkuMTY0NDg4LCAyMDIwLzA3LzEwLTIyOjA2OjUzICAgICAgICAiPiA8cmRmOlJERiB4bWxuczpyZGY9Imh0dHA6Ly93d3cudzMub3JnLzE5OTkvMDIvMjItcmRmLXN5bnRheC1ucyMiPiA8cmRmOkRlc2NyaXB0aW9uIHJkZjphYm91dD0iIiB4bWxuczp4bXA9Imh0dHA6Ly9ucy5hZG9iZS5jb20veGFwLzEuMC8iIHhtbG5zOmRjPSJodHRwOi8vcHVybC5vcmcvZGMvZWxlbWVudHMvMS4xLyIgeG1sbnM6cGhvdG9zaG9wPSJodHRwOi8vbnMuYWRvYmUuY29tL3Bob3Rvc2hvcC8xLjAvIiB4bWxuczp4bXBNTT0iaHR0cDovL25zLmFkb2JlLmNvbS94YXAvMS4wL21tLyIgeG1sbnM6c3RFdnQ9Imh0dHA6Ly9ucy5hZG9iZS5jb20veGFwLzEuMC9zVHlwZS9SZXNvdXJjZUV2ZW50IyIgeG1sbnM6c3RSZWY9Imh0dHA6Ly9ucy5hZG9iZS5jb20veGFwLzEuMC9zVHlwZS9SZXNvdXJjZVJlZiMiIHhtcDpDcmVhdG9yVG9vbD0iQWRvYmUgUGhvdG9zaG9wIDIyLjAgKFdpbmRvd3MpIiB4bXA6Q3JlYXRlRGF0ZT0iMjAyMy0wNC0yMVQxMToyMDo0OCswMjowMCIgeG1wOk1vZGlmeURhdGU9IjIwMjMtMDQtMjFUMTE6Mjg6NDkrMDI6MDAiIHhtcDpNZXRhZGF0YURhdGU9IjIwMjMtMDQtMjFUMTE6Mjg6NDkrMDI6MDAiIGRjOmZvcm1hdD0iaW1hZ2UvcG5nIiBwaG90b3Nob3A6Q29sb3JNb2RlPSIzIiBwaG90b3Nob3A6SUNDUHJvZmlsZT0ic1JHQiBJRUM2MTk2Ni0yLjEiIHhtcE1NOkluc3RhbmNlSUQ9InhtcC5paWQ6ZjAwZmY4MTAtNDJhMS0zNzRkLWJjYTUtZGMzOWM2NjQ2NmMwIiB4bXBNTTpEb2N1bWVudElEPSJhZG9iZTpkb2NpZDpwaG90b3Nob3A6ZDE1ZjQ5NmEtZjRiNi1lNzQwLTgzYzMtZWQxMjNhOTQ5MzM2IiB4bXBNTTpPcmlnaW5hbERvY3VtZW50SUQ9InhtcC5kaWQ6OTk5ZDFkM2EtMmU0Ny01NzQ4LWI4MzItMDY1N2E0OTVhOTE5Ij4gPHhtcE1NOkhpc3Rvcnk+IDxyZGY6U2VxPiA8cmRmOmxpIHN0RXZ0OmFjdGlvbj0iY3JlYXRlZCIgc3RFdnQ6aW5zdGFuY2VJRD0ieG1wLmlpZDo5OTlkMWQzYS0yZTQ3LTU3NDgtYjgzMi0wNjU3YTQ5NWE5MTkiIHN0RXZ0OndoZW49IjIwMjMtMDQtMjFUMTE6MjA6NDgrMDI6MDAiIHN0RXZ0OnNvZnR3YXJlQWdlbnQ9IkFkb2JlIFBob3Rvc2hvcCAyMi4wIChXaW5kb3dzKSIvPiA8cmRmOmxpIHN0RXZ0OmFjdGlvbj0iY29udmVydGVkIiBzdEV2dDpwYXJhbWV0ZXJzPSJmcm9tIGltYWdlL3BuZyB0byBpbWFnZS9qcGVnIi8+IDxyZGY6bGkgc3RFdnQ6YWN0aW9uPSJzYXZlZCIgc3RFdnQ6aW5zdGFuY2VJRD0ieG1wLmlpZDoyYjAyNGQ2ZC04YjdlLWIwNDAtODkyYy00MmRkMDhjODgyMzIiIHN0RXZ0OndoZW49IjIwMjMtMDQtMjFUMTE6MjI6NDArMDI6MDAiIHN0RXZ0OnNvZnR3YXJlQWdlbnQ9IkFkb2JlIFBob3Rvc2hvcCAyMi4wIChXaW5kb3dzKSIgc3RFdnQ6Y2hhbmdlZD0iLyIvPiA8cmRmOmxpIHN0RXZ0OmFjdGlvbj0ic2F2ZWQiIHN0RXZ0Omluc3RhbmNlSUQ9InhtcC5paWQ6YWE5ZTc2M2EtN2QyNi04NjQ0LTliNWYtNzU4ZWE3NTdlMWMzIiBzdEV2dDp3aGVuPSIyMDIzLTA0LTIxVDExOjI4OjQ5KzAyOjAwIiBzdEV2dDpzb2Z0d2FyZUFnZW50PSJBZG9iZSBQaG90b3Nob3AgMjIuMCAoV2luZG93cykiIHN0RXZ0OmNoYW5nZWQ9Ii8iLz4gPHJkZjpsaSBzdEV2dDphY3Rpb249ImNvbnZlcnRlZCIgc3RFdnQ6cGFyYW1ldGVycz0iZnJvbSBpbWFnZS9qcGVnIHRvIGltYWdlL3BuZyIvPiA8cmRmOmxpIHN0RXZ0OmFjdGlvbj0iZGVyaXZlZCIgc3RFdnQ6cGFyYW1ldGVycz0iY29udmVydGVkIGZyb20gaW1hZ2UvanBlZyB0byBpbWFnZS9wbmciLz4gPHJkZjpsaSBzdEV2dDphY3Rpb249InNhdmVkIiBzdEV2dDppbnN0YW5jZUlEPSJ4bXAuaWlkOmYwMGZmODEwLTQyYTEtMzc0ZC1iY2E1LWRjMzljNjY0NjZjMCIgc3RFdnQ6d2hlbj0iMjAyMy0wNC0yMVQxMToyODo0OSswMjowMCIgc3RFdnQ6c29mdHdhcmVBZ2VudD0iQWRvYmUgUGhvdG9zaG9wIDIyLjAgKFdpbmRvd3MpIiBzdEV2dDpjaGFuZ2VkPSIvIi8+IDwvcmRmOlNlcT4gPC94bXBNTTpIaXN0b3J5PiA8eG1wTU06RGVyaXZlZEZyb20gc3RSZWY6aW5zdGFuY2VJRD0ieG1wLmlpZDphYTllNzYzYS03ZDI2LTg2NDQtOWI1Zi03NThlYTc1N2UxYzMiIHN0UmVmOmRvY3VtZW50SUQ9ImFkb2JlOmRvY2lkOnBob3Rvc2hvcDoxNjhlYTlmOC05ZWFlLTI0NGQtYmFjMy1kYmQwNDRjZDBlZjciIHN0UmVmOm9yaWdpbmFsRG9jdW1lbnRJRD0ieG1wLmRpZDo5OTlkMWQzYS0yZTQ3LTU3NDgtYjgzMi0wNjU3YTQ5NWE5MTkiLz4gPC9yZGY6RGVzY3JpcHRpb24+IDwvcmRmOlJERj4gPC94OnhtcG1ldGE+IDw/eHBhY2tldCBlbmQ9InIiPz7O3kZRAABIdElEQVR4nO29S5Acx5km+HlEZGRlVtYTjyoArAJJgKQASQ2yNWCrFxprg9bWsLs2aLMd9oVzWM5h0IdGHxq6UIeRDlIfSB3EPjQuzT00Lou54DIwGxMuA1tbYaZX6GkRLRFokuCr8KrCo1CoysqsjIf/e4iXu4dHVmVlZIFp5h8sUZkRHuG/v/6X/+7OiAgGBgYGBgbfdFjPmwADAwMDA4OtwAgsAwMDA4OhgBFYBgYGBgZDASOwDAwMDAyGAkZgGRgYGBgMBYzAMjAwMDAYChiBZWBgYGAwFDACy8DAwMBgKGAEloGBgYHBUMAILAMDAwODoYARWAYGBgYGQwEjsAwMDAwMhgJGYBkYGBgYDAWMwDIwMDAwGAoYgWVgYGBgMBQwAsvAwMDAYChgBJaBgYGBwVDACCwDAwMDg6GAEVgGBgYGBkMBI7AMDAwMDIYCRmAZGBgYGAwFjMAyMDAwMBgKGIFlYGBgYDAUMALLwMDAwGAoYASWgYGBgcFQwAgsAwMDA4OhgBFYBgYGBgZDASOwDAwMDAyGAkZgGRgYGBgMBYzAMjAwMDAYChiBZWBgYGAwFDACy8DAwMBgKOAM6sV3ni7j1tLiOZ+HU0QAWHTdYvDBAAYGTrxCROBELgNDo1r9/Ft79324b3xiUGSVioXVJ7h+//bf+Zw3HMtqMjAwRh5jDLZlNW3L8ixYPgO8kPgogVBz3KWju144v68x9Vxo/t2Tr44+aj87EfKwQQAAAmNMSkMgcJDLKXQrltOcrU9f+e70SzfLyP/jp18eXvHXjoWcu4wxMMCzGPMYLET9Al7UVwghUYNA4MRdTuQSyGWAV7Ori0cnXroyVhktg6TS8NRbwb2NxcM++VMAwMA8izGfwQJjzGOI65bIDSkY5RS6HOQSCETk2pbVrFru0xdrL94ccxql0PTYe4SH3uLRELxiM2fdYU7ThuWBMY+IuyEFDY6wwYlXCJSNU1j+iDWyeKB6cLlqVUuhpRc0w2d4FNybDylsOMxpWrA8xpjHibsc3CWQCxCIuGsxhgqrLu52DiyPWOX0CSLCg+Cz6Q2+doQBsJjdBIAk3+Q7gYCoX6LCRpb2Oodvuqy25Xw4hVgMbh7t0OoRMMCC07TgNKO+wl0wivNkHouyhc3c5Sob+3zKOti02MBYeFes83to0p1TAdrzDJbHYHkgIKKXu0DE4xmYZ6HSdFh9YZTN3aiy6b7yHVhp/+nuwi/vP3t2mhMdhsAPJd4o80lUHed6SNzdNz5xflB0lYnF5srJZ532UQAnGMu6cVSsrHBZmQlguNoOvJl/0/jeT3eWWoATx+1nD/6iFWycVaq+S7sQ1oOND747/dKP+s2fiPBV88H/2Qo7P8nyITWVRA8Dy6VhjJ1/5jeP/nDm+AeOZfdLVingxPHPqzffWQ/b8wT6mXiPAQAj+TeSsgnpLAID+5HH/anvTbxxrQy6vmp/dXI1XHmdg/8yU0zUOk9cLcJ1xmDB+tFj/9HC0dE/uNSwx8ogZ8tY9BeOPg0enQjg/V1EFwMRIVKwklTJWCNUWOXH6+Gz37xWO361jPyXw3t4Gjw4vUFrf5/lE+UFBmGMxP2VAJtVf9yh1twh94+ubDUfn9pYpyfH27Ty94K+oLJGiE3HwGDD/WnTWrw553z/ksV2dgy06RGW+cfnPKwdAfiZlDBI3TwCY7DJgYORn4Zoz+5h399y3egwMJdg2/dnOdFhIGvfiD8JJZIKR/CC4LgXhtOc8gPqmwhO3AVwAoiLRZA7diLCKGLWcZqTG743u/PUAhuBDy/0phPqdH/TH5Rd9UN/mhPvP//Qg8+DBiW5RRXT/SGimAxpCJ9tBRtzd1tLfdNUFu6276MVbuSEVWRT6ctIyr3I28B/2eFef2qoAJ/8Bgf/ZfL+tB9qaBHBicAp/OU6Xzv8SevjU2W0fy/wyZvyqPN3nDg4RTZ/wg2T8SQWxCf/PY82Zqkk3uHTRiOAN03gaTtFFmg8ONJ8sn4ZUuc9j6/P95JP1WrAQXUZwAeATpWIkPIQcBA4Amz8rE0rxx7zT3vKr18QhXgS/u6Mh2fHgPCMyOc0qQHi4PAAECoY+7zf/AcmsCzGPEiDsSChJL+SDjkcAstilqdrLJn8fINGJv7OI3I9ib9zd5UHqCDt9sDF/iDmphFcyU9SLyDqHyGFja/XF98pgaxSsNh5dDKksCJfJWgHtFpWpe5V7bo/bK2vERCz5hy177V48/DXG1+U46PcIhiYx4T6ywSUcA2J4IJwr0zQL7vfplShIpbUYdigHoX7XufVyy4bvdMlIwAcqnoZovOTVX7vdEheT/n1g8f8xvEOrRwDaJOxJ451CxZGFifYkdv95r8DQRcZk0zHqcKgmNAPiaiivuGbiiJrKg9ZcDMw73kI5VhguZtaNdJDlGm0/eZPHEQiA1VEpJSH0G9Si0x63ZkVb+2Yx/2+6eoXPvex6q8dBdFPUitGYf25+tPUZzIsGFAaByoSfkXtKfRkJJZEwP2/XfTuvbXBN8oia1OobvWEIlUBSEUXS5yD5YwrEv5Pr6VjofABEHG3VxpGrV0YZbt+zYgJVlaxAE7vE8Hn64cehbeO9ZThNhFQG01+/zQhOFtUD6oqBhAcjLxfZ3OXGOtf3AxMYKn++QRELFdQ8WcY9t7gzwuRFSmCIImxtBjqPEy5OvRWIdGjWE+icFA1/uR6v4hcO1tFwaSaMI4JHI83Vvqmq18sbjyCT8F0NvEms/3kb2Il6Gxu6Qors38wTzL0KMqPMZa6COX8KWYKMg0d2pj9rHXzeImEbQFbsJoYAMYGwDHIzeomEYqy4ql9ais0a7DP+fb1ETZ2K7EUE3uKUrs3y0G0yUME59b40g99avWcZ694zG+cClhrnlheIRPpE/kHg32hwsZujbNDy2XQMGCXYASVTWUTiHkxHXLeGBKPIADBK5DSHHcoku9n9/Lia6eQRIFJlq5wN59eYGMlNErqElTcN5JclzlrIW0AEBJv3G0tneybsD7xYGPpZMiDiuxvlXt9dxGkjA8avEKTtSfl2lanVhDx91bDldcfeYsDpy2mwRV6X/rJCfrEmmUAlagIRpFuYv4AIAvGYiu197HisCrG7QOXbTjvgyie80/+dkeH1o48CG6c7jnTHuDRKjb44xNIXIFMUMIArfJDINioL0xbxy6UYV0BA3YJyoEIQkGkkZxw0ChVyEN3eOawZAurmGySGIT8d+dA0UDwlIvS/aK6LyUQhrKorvw8DjQVKHd+iRFEt8487qz8wAufn1vQ5wFW/GevA4giH3WuPuV7pr+I9ZClYqw8l6COzW/NJZxP4/HO7ELny9MhhaXQ1g280LVWcFVTj+XknzNPFdtZpg19zE/vsQ8vVtn4LQDnSRmXXcHoTJs/fX2dP95u1pviUfjbd3zWmpf6jiK0cmTBuVBlkzeqrLwlPAMTWESCvlPQtsQJ4KLWjXjtzXDAZtZ69xR6s1kNftgpRJ0Lbk6rzgU8KPfZ9rRGFVyXb1Fgh9wthMuy4PK5P3WntbijAQEi7rcX4fNAHpGbCK1iFLlZtg+KIlmFOlNMf60nQEopUvWzdrg+//XG56VFMRYhWctTdJe07uUy6060sNQ8hNpM5iwTS6MPGixmY9o+eKGC2lLyLgIkF7F+/ozgs9bcUvj7d/gAlImV8HZjg54eA/F3UiISQhKhxZAGniQkVjB2a5f1h5fKpGVgAosTuVqemETVAHnfM1ESKj4UYGA55q66/3TIFhzuNCjW3jMzHoBm8QTyi4lLCbrIL1IWaYvSSAZ3ei2fOroY8PDcndbiW30Tt03cbd9/K1rIqtG8cy5XAhMUuYT1keQCJCUwZfsgonSMEQCemw/RPZO3CMVfPnl/+8i/f3o9bJZBYiE4cVd2twusUDK0BaFbqktwM6smYtDSMz3N0eox7byIEWviIwDn0/6BxMOhKjRcHLtnOrR65HH4Salh7iF5WKEvznB0zkmDMvWMQZjjSOO8YcE9P2G99oHTwyLqrWCQFlY66LQ8PBm4yQiJP5w/n5Dv7YCJ83SilpV8T8slC4jn5fGM6XLVa7pRpmqOvO+hKFSFOu50FomSRl9nBDBgzW8d2Qg7fdPXK5rBOprB+mEQvStQJEPQRgkAZ3L4eE7IoRxrNnlPZGHJlamlUSVZtYaFp9rhxuzn7U9OlEJkAbhkYVH+azzfmQZ3CeOsDBCR29UNHldpZm/lhel2scd55bKD2pKk/MbWS27xtzBZHpL37jN+9y2f2v0TEeNR+M8nPHp2LO+SJ0Fokar0Xqpg/Na49VLp8faDs7A4uSCkrsG87hOvXFd2O6BS9aQdQLcJci0jfn5WZNFY2myMEVFJ84qqFBJ+qlq0hroilxUn7j5oP97xOl3ceNQIuJ/bC0jvttnKG1PFprSyFAm/XE0XBRAImkMmZPl7a+Gzow86XZYO9YmcC1P7SxEWA8g/s/I06xT1T/a9LKdh7cG4PfMrAB+KQiujQFyTJVPt0/qhpeCfT/VLAwD4tI4WXzxFCN/R6ZmpsFIUGwsji5PWtwayW9EABRZ3WayCdJvMlzFUogpcWVMEJGWF0LJaofXNCiwhdG+fkmjl1I25KBapxp0mkxLrtkTweXDuQftxKYO0Fyy2H54KQdpgC92ckOrKElkQCeOkXAuLchaWSoVEtCatrvk9vjF7t/P1Wx4vf9Fq5gkQ64ck4SmlR5KyvCUxBMWrkGNNJH3EQO8yaNhjv3q9yhqfJ308HZ/U3dfBEZxd549PNHn/u8AsBf/0tofmYZ2iqBVeUftcqrLJGw3rhb7z12FwLkGxIZN5K/1kBNR1NqUuQxkoNtHupKkJ0VJ4PjNYce7FdySmoGq2/VMcubqZq3UvFNCjva4+D+CZt/r6Ti4ibgVtNMPm4YiexEDMWwVaoZVTZgpMxxIQzfFkbqREIIr1p81O5kZSOWLh8LM2Xz/81canh8ujVs4hq53YomDRhxiPr6k0ljk3TBWJNSfyQlI0igRo/zRUrQYm7AOXGOzzkjLMJKq0AtJHa/5hcPNMP/mvhF+6G/TkOBjejja0jSCXWrVvCQ7qC3usf/VhP3l3w4B3uoj36wUAEFjO2soaAtmVoZnDIkIlNYljyyC3L2baotICqB2nFUAqjPKCoLtGXZYxSML/0Te9FVVEl8A1cs93Qn9qYf3BjkULPthYagTEBXegysAEdlIktUjv/qYyt+4SmbjS/fK1362h88pMQP57y/6jk0/9AYRTq3Oteoqg7zclkpH+r9aWXlSVqWvvsl++XWE1ye9KMZ/J9yhJCXnHo+ahp+EX2+pHIXl4yj8556N9Th6vyf86hRZgzLpYY3uuuWxwGyUPUGDFc1QKEy/UmrfsNvzmQBtYKwZfyInxTXJ55rcKKvwRowzaiy03Sm9T9oGuX+ifDyg8t7D+4O0SiNwS7rcXT4cU/ERHi3hFp5SJkLf3GgCUTUJkFNdr8SX5Ypu35r5of3q6/HBqTV/JuoU2VZl+C60w1Lgku9dpf3BZHbvtw+ctVD7IUVbopYloDNB+90n4+dnt7DP4iP/uRAdrR5JAD/G9+vJGHwejC7utN0oNY1cxOIElucDSb7CQ7FxDyOIhhY4wTEKrkNYs3F3q4ilDfk5bM4Eg7suZuYdU5MP1y6GYZfkK7keKrW9NUonW+Fv0ITU5oRW059rB4Pe7W/XXsB605iMjaetsUnK5xopckQu2LKiRqZHelCgFWR/I0xh3U0mByOvYBPpJi68dLXdtFssi0HRCYgdYBCXnlOVvSGASeeW7+nfbLzdr1sQtMFzQUdlN0fCoeehh+HFP22l1aBVr4f3THME7BUNNKWWUyIJ9scHmLjqs3kt2PeM5nTgc1wLPaiPZioT4DvTG0rBVNh53fSYU9jmAKKFFZ6eQ0P9lC2cn5hRzbFszFnPCIWXCEb1BGDTutR4O3C24tPFoOuCBxh1YZEnJA5yUQqjPlLr5ba7xdPOUeda81Z0jCASfvPceevfeapW0Nis+2DOXU3c6ykb2xtze66niGc8psaz+SnXnAmDMwi770IcW3GWddae1OOOF/hze2TX+4H/tZZ/BxeB/nPFZPDcruMbU4Ri9P5pJ5EC8BdN3b/RYvJ4x+K2ZtoBvjqOsd/TixhSTPo8yq7wrkk0RUUzxHTGwZI4b0q4lfWLz6tKMwC0+ElJ47n5raaB7qgHA4sajUyGFP8msD4X9a93bypDXCOPBIcm7KBy66DGd9k7a623enr3dvlXivo6Wp6+SzGLU1HGJc39df2prkUDx2sxy23LKnkeD7bkK6KwstTlkRSRAe+5B+NGWxsST8F9m27R8nIjShfiC7a18MthwL0xar/1iJw6SHOjCYXGJlehZSDT9NC1Pfu+MNl8WiLibuTeL0hAgzeJBa2bvBLbOE6NtN0nc7LOshlGIyDMezTERWq8Hae+tBa0j68Hgdq5eD1pY96ND+khpVhW9yqBs55FtEqd7ZwGTEWxC2VKVnqS0H2RPpcRK7woR/mwtXHn9fmehNMrzWSVjSbxXHO7eL0QlTq3FLLBKFOAMarBIWdhtH77soLZYHAOQ1YU4HcHhn2nzJydWwq+6vt+jNSyHn/1ViM6Z6H2ZxyA63ysqfeqJSbwwhMs1tufqlP1qKbuxb4adcQl2Y9BxH6R09A+PxGKId7qIhVbSyOp8jLi+JlbIn1skJBFctYZToZvTnnmprdEt8EaOFCXknEIk3s0/n7gmvNCf/qp5bwCh1hHutR5MBxS5A1naX2XmLSJfVJnZ5u6Spuz9gIAtjSlBaFG8AiljUaS3zYhLBdzg7Zm7nS/fKXNtljDlJxOac2GWliUApPOLSgSz5AqTkYTeq0cOlYMxey+m7PmLjFkXEjoSl6QqThljsSs4OsrJo9b84/DTc5yCwvc/DH932kNTGjckCmJReLOsLhzUF/ba39NafoPAANdhyQOSxVI5HeKSMkfCn+dhe5QAySDQlIHFew+CSt2NezsQozcBjbEvRunF2kapgqvAWlOFVuEUttYiiBBQePbu+tJA9hYkojg6MPxJ8lvHKXVCKzdvBSq4Vx7zja2rbS5SV60WUgSHeCvtPe+2+fr8VxufHN1GhkruiaWy9c5XbsgDUxQHvZWadUaWb/iSsds5fKOC+kLCR6N8NSvDpKAmAKC3PVo/9DD8+Jjuvav8Ltb5w5NgKBg3uoYngLHLdWvmyiDD2FUMPEowr6XEWkD0Q1Cc9dJ8qEAAeBb1Fn2y75kb6/kJZTUiLLumMKfc6Ou/TZJ8uoapqy5DcThS3lRXhioAoMP9qXW/fLfgsreCdrgxn+TEgCxMbAtt2i3JTs1vSvXbhWyHObCZrVUctC64+EUB+T977C2dXAlK8BAxWVjt7LDJvCf5HUgIiU3fVbEqGS4bxR7n1b+x4QrbHhXlTZKrJ8TG2dXw7lvr/GEu5ZPwk7M+WvOZF0jsGHJ/gdD2kXX1h5f7KlSPGOCJwxoImrEkuIYVjIntl874iOHK8lxMnuHuLCjTFJIrUkCFElwxQFq7zjv0djkLLY6LF/Kwcbe1ONs3kQoetJcO+8LegTlGpVimMjNLhLWQHPnHS4XQ3RKmmz9pWE4PAizYmHZ2o2GNw2EOdLaLVumI/2xQe+7L9r+cJso7zrZOuz5wRb+MQCxLSZWY85unFGiT62JvB4Hd9qHlGpu8QaCLelEp0yGmCNCefRJ+KllRK+FX6PC1QyB6S2Bk0bekLyu7a0Sy0L40Zb36Nw4bKbV8m2FwAotZnlh3yR578oBVL4gTfEOAZNBLnZunrRrdZmnaNHSfns8clrSztYBcm0g3k2fLAQGuaGh2n0SOvluwsnQy/wdLFYPswYDCs/dbD0uNFuREeNh5fDIEf1cKONCRTwRGDDZsRTPPJYRq2fbF5LVZKAxMNeVYXqjazP7xuDOxa1/1QNVl1T9Pacu9moQXZa8g8HfXw7WjC53tr80Sw8Pz+eRsviTj8iAej7RFWRTzs4GObcYs7HVe+9BGtdCEJeVL0sIheWc26OnxVX4PABCSjxX+1TsBWvPyg0j7RmKGJ6HycZ1crlqTN3bb375dauG2gJ2xsDZr8J1RTgaGvMa6SWG6WRc7BUV7EH/upJsjylvyt0Osm6pVwcvjBzDhNlLKUks14VGC0Ersm1bQnmuW6BZ85j/DRtgRrLbu9VOzR/BCbT8qlhOn1td1co+2cFZVr8jmsAoTKDRkdFatkeW5kYPeXnf2SoW5P87S5AWgbteUDm2896Cz8HYzXO2D9kxYpeOrW1RmiWHtWW2QEkWlc0Irzw7Ydzlu78ek9cIlAruYUalaVikxKaUEoEPr84+Cm+dWwzt4Ev7L0Q5fOQZkYexiwaRSCOPTxsjiHuvYzwdVvm7YgShBgRERYitKZI5q0iGaw2JqiK2qcWeDTbr8vBYOg/KrIDextuJ/JTEClreUClNGH4ux9ycqY2Mztek3K5Zznin30/SxVZsIsw73pj9f+/pYOXQD91qLh30eTKVe3fS/vOfAgoVJd/KHDWd0zIb94+S63oGTBY6X3S2ksOxc30zJzz1FnLsOq4AxCy/XXlkYtUYXALxfnJOmMQlo8/bMF+1b29pFnyi/87r8O5tvKYh96QsEcgnZIgtdGbeong4Ee50jV0cwfktU1PR2p6DkMYDA327Rk+MPgt++t8w//w8+1s8VZiIJrbQOrtTY7msNa/8ASrU5BrkOS9GaM+auzlPvpDZfLtQum2w9pElDVPqg6hVJdF6uW3extjQP9IHE/snqRLqbMJ80bfTNsezmnpHp6y5zlrM3RfdZrAykntf4b0j87L31pT8NeP973AU8wGL74SlO4bl0MzHNKc2Ji9Nh9k93uVPXHMtpCsWW6Ia0O8IAmV5uiyvhezI3ofRXAq9QWvcVvFR/9eIIU45tV6CztDgFP1kNnx190OParNiN6ib5pVFLUKwXjaeizHokEDijLABQMzCIkpRZ39YFvZeNqtXAbufQeQsVaWd0ee6U5FUXMf1EwdsdrL7rUfOcSLf4loxvyXXqWKO39zl/tGNh7CoGKLB08zQsrgDB7oyvD6/Qgqhyo6vQyl3fYRBALGEEuvtdBn+JK7qz/fvzwlLMO7lqMwtT1XFMuGO3RDlR6LiM3+dzf+qp96xveh93lrERbswkNDEhD5na6JpructjTsOzxZX/okKAjLmrI6H0TaApv/NC8fv11/e4M9jt7vmvFlk/T1IVsWT13R3emrvT+eKdDu91j0cqIgdpFFvufvEz20JRl5fyl2cAd5KNTdsvLlfZ6B0Al4B8v0kok63E/BiXhZZegBEARs6lcTZ3qexj73vBwI8XyepQGO5C3WUu1uETWkRZAIG2t/bGFwaO9Oi3RNPS1bjsE4TUfCUh1QFFV6nIBAQaOCfXYgyNSh2z9V1XHMs5rxOseXcXIaCwsbB+v++j3O+3l477FOQCCHSM34L1/pQ7+ZsJdxwWs8ApdFP2nrMok0/MNlIhNoiJe5lhFS03ycohc+tD9W/dqNujd8R3FXZvoW8R4Vybrx/6auPTntZmqYaUZppMb/WUpFeJLlqKuLWmxCR9y4uDwcJmLvY6R37uJPsMsqwvZe1c8DDlvxJlrZq5k7P3Va2JGzP2G1dLL0gPGOCJw6EbrUGKmaNUc3F3iHt0yusJID7YKJvSodPyxL+SovKcBTKRVjXuOtBShlo+dC5KdcsbArks7qZ7RqaXHctupvdVUpVLHHTmYevJD31evMJ/MwQ8xKONRz8korNaDVWxtCqWs76/NnvdtVzYsBAJoi5EaiBaYOWiO/2iCsOYzBqq1gjmai9eqMD9afHb9AjI/8my//DkU//RlqiMdmqA1p0pySdxrW7pLvdkHVaiTBQrRoMQmFvFtP0ixqx9lwF2Kck/40CJYqGGZORBAFjidgWBU7SfR+oaRv3DXda33reYM6iibAmDdAnGYNn/kvQnSYXZbF+2byJYsqt2UiQufBfcnOL/Or/7ziKb4E8XNyv385yhdBLiKQldg5NcPURwrMi1Nlkdx5Q7cZ2Ai8k97TyYUNc+BaOPNp5sm9Rl7yl8HozKkduK1BdIqDm1hZmRvQAAi1kgoJKQKj+QdZbkJI2yIXpxsz0tFYIZAUxYSkIAY0x7dPPcyEveuDP5ESN8kAS5kCqQAY2gIWzw9UNfbnzyVtjDuVmUSon0CpQLEYNO/cQlK7uS6ZGN4pzunaQBx/MIGptxjl6usoYQYi5aSUyqtXTY5UiUGzFRGhgDLFQujbCpG5P2y891hx5gB/cSzL4L6pEAFrf3oENCy4aWWlUmUf72c4GWM1ImQHLCC8JALYtqUY/XWEmAdFwYIWL8CV5ozFyyYTfFZxNLXjcOvdCb/rp5b9trsu62Hhz3ucYdKH2Pflmw3t83MnMlsRzVPQHlqs/iHQfd5ZMFw8pVpKpUD7rJofprl2v26B1iUb1b8bskV5TmhSGF55rB6tGvNz6d31pOlsAc9ZZhbvFy6XJCUympY4jn8x8UGZugZk1i3Dpw2YJzMVOP9XZVRDsp9adr/Cz6soLR23vs757XJNpxDHDhMJMbNFcncscetvkrEdJsUE44xXuei33nORlZ+YGUJ4hQdJRICQQLVhWBMkGziYAX51P21/fCtR39okndHBHozJONleOdsHfl0OcBHm08/iEnfha8u5uOiFCxKutz9QOLKd3MUvp193mQQaKQdnGIboGUyco0ZqsvXKow96cJ8wMQM3KlfOn4jq55tPGzJe/uW+vhWi+Ud197lbARBqSbUQ8KaVl5NnISxh/T+LycRLvtV65V2dgt+SopbaJREJP2kYRYls6Ge7Fh7bsyau0dGO29YOAWVqHQ0s1BDJqYktF9V+2sNJJngwAa8Gr4IkQWCPOKNWpReaD0G7B1DbwbkqjAYqeJXusXrQPXrmD3yNQ1Ai4Wy33ZTRVS2NiOW/DRxmN43J/K5tXk/qzmP2rXb9ed7MRVFllPbpqyoLsk9ZHsOA+wwg2Ce4Nc04VrlhRLgUHd+FXGi7VXFupWfQGg84lFTPGT2lEtXNwIW3Oftz7uujYrZppuUoR83xOsOcU9W2Ysq+wFSBg7Ty9J7f+cmdeINY4p68ULIOuSjqBioZV36Yqh8Yw5zUnr5asDIXobGPjmt8pX/QWtU/ibj2xyPN10SU0QYRN/8U6CGIQtb3J3ld9irFBJNFNWW10TSd/ltHONfZcr0pqsLm8igs+Dxp31Bz27Be+1Hpz0Qm9a7p15jk8AbGa/P1PbKw3s4l3pVRmhum/KHAN6sa7zDCd/I4OhmAaHOXix9uqFqlW/E1nKyVwoxct+NO6o+GuI8NxauPL6g87XW6KaKJmL0zHcRCAnEafkls0/SGoT5d1i7BjKUer6QdVqLACigpwXWgTKooWVe7oiEoUN9rwOptdgxyjRusxUi+u5ByT0hsRSEs3ovFtE89xOENcNois2r15JP9JIoxJGY7r+ahNBmdSkNJ8tYF99D6p2dVl3VpGug3HiZ552Vl/vxS3ocx9POk/fBHAmT2Ge/orlrB8cnVsUr1qwZOI1LkudxltWD4ktauG9Sk7SeCNBcOrTi5ip7sced+a/2sx5X3Q8FQ3v9AIBG7w1d7fzxZmAa2M78o8olm3uhQOAuiZJq7AJsiz5Ovglw8VYDR+ciizTLIim21yWKvyL+uMaf7DFecfBY4B7Ceb9yZLQUixtIdHzV1W2CMF1ndOau87fPbfyMbldckJLURmRRHeWaGHF+WmFVk526vN0LBsz9V1XGNhF6XlJsMrPeqE3tdC8v+XNWB9uPIHH/SnRPaoUQmzH8xOViY9GbHnn6ihYRAmqkH7wNKqx9AXDWigDj+W7Zkbj5pbKofqR63Vr9I5kYWjaUGzHuKxnW0Hz0Bcbt4rXZm27Kkqsw5wlrTAq9ZiAFDvvJVoPn2CNL57iCE8n5Ekg+UNE6QEpYqJ0TjC+HKDz9gr//C9Ceu4BggAGHHQhIamoAomftPlwrcOKyqAuMkwaOy+00tI/lzLGzMJVLkZ/dAwzbaZyGWnSNRLXhZqn2HOI4Opcay+PvXCtYjnL6kLJ6Jm8NuTz4Ny91uLprQqFe63Fk37oT0veKGgELREc5jTn6gdy5wJJ5VCeSSIFNDs8qan7QKFE2sKTmzPdqjWCF0ZevFC1qj+PcyvMJ2mJJI1P3rtPvMVTz4KiuUVhJiXdHikT7Kp1OIigLZ39JoUxSCREVy22tborGw/DW29t8LXDusBF2XJWkUxlaCwHihyIHq0dfhT+/vgg6O4VgxRYnnaGN/3JoIrzTNEfjnksSo/KyHftpINIzDOVZDtFYR7ZLgR6C7DoOIzSgi6SPIS6IOW+mD0DPF1vmKpOoO6M3Emey6sOas4cq17zSCvcfIugTuhheWP5TYDOiPSlb1MuOLDXZ2v5KCpp8a22Xkn4P0mmk+L9QGfNyrlK9d9jQ8+NvNwcsyduWGBp2HPiwpNflX9vO2zNfdn+F80pt5Svk+TFuetZy0P51h8yxY4DggkpUlmAHeZfq+Ei1sKlUwSen6dV2a/G86PjXuLOHgE6b62EX5zxqfxDUXvFAAWW8EN1MaRMnilpYkE3JGCAJw4thqhCLUDSnNUNO5+XvFKjv7T8RFjtnt5KI936p0DKUhJaeuuuyBpljGFffe+vbLALaVpBKOjcjiEFjbvrDzY92PHhxmN43JtKyJAISmlPv56fqk59VLEqBW/Lu8Sy9+0cCqMDE2Ux/j9awN89SlAEYwwv1V67VLVqdzbv2bKyxBGeawbPjt7b+GJzj0Ous+aFfblgXdeBiXeKfu0EiAiL/sdnO7Q+n9DJYx6T21uQCLBYZK2mAikb7/HTkLTIGD615x8E//j2DhSpK3ZgpwvhAin3VeY9JHNXEki2opJ/SbRU4UPPCRR3xmyHC8UNoF5C4aXt5a+4JLdy3EiRG29+bN+Nil1ZThmKhseKjwY8PHt/fWnTaMH7rcVTPg+m+Rb6owO7ua82oz0mXA0KQcGvLvywb6iWSurUKDHDaXcPZtwDlx1WeT8XmZbkF1tDwn6JAIAOtX523/v6HY93hKfy4pKQhBLk606ddykDklqnDpFU4Y4vSb+Zt5MuwYfBrfl1/vgEQKdEKgqrQnSlius1JFVCTB/94Sw4tcbvn14N75RE+fYw2LD2dHCgByZYtHD1GwgCItemJRUm6bCWYmUJno3nNofF4oDyZPBLvDL5wbL05VoE4rvEAZ9phPlhU8xap6oTaDj1z9N9vSRrQXhDaq0Rmt76oaa/Xkihx30sbzx9kxM/k13lklKSaqUEuLb79EB9X0FpecqoGRPaP/2oCps4F1pefScu2GwuUGX6HOL6Igbm9boO7OX6t27WrNE7AD4krfIQ7/7BRFEQ/WuFq0c+b/8+3aSYMQYGSzulkJ0eprya6VeB9YO0pRnA44901ImQSphb27Gx3eFNPA4++6sAnbcTSjIZpBk3LCFXXAspDvq8Cpu8C0QIqT2/FPz2vdIL0gMGeR6WC6R9SWCKSifsItCGCaomK/yQ2f43oJzpOijBysrNaZHywEDUCCEjTURWIk67WQP7R2cuO5bzofoerc5IQEBB407zfmGY7sP2o2jvQACId2spUqwA+nDPyO5fF7kDOWWMW56GEYReTniUHJRDuqPmoc87IQ29Bw5UrAperL1yvspq0bxi7tVcCZiIKSDA4965Ze/RDxaFtVmMxVsziZF4KYE5laQnWreKKOBGb7plvYxpru+Myr0U3DrZptWj3cqfa2Mx4Il09RqNmWzbW0GxBJ3YoNWjK+EWXLgDwgAtrOSTNGGsxRWljf8OVZSgHEKWDUQhOIshsrRy3fo5BJZwIpCmDbayOLg0arUvUqwtkplUN2tjrrFvwWHxDu6bgEDweXD2XmupMFrwzvqD0x73p+OMU5ITC1BEhTnL86MvXCvKj0urcsQy5umShGuJWk3e2tyC0Nom9o/MY7Ky6zc2sz8QGaCeocrX2nztyNftz86uBU/R4W0QkVsUuLET/ZRA8onHcZ9MdiPJRJVavp3RSFt8GSvh3bcI/JR+jhQpH+KCzLXgXK6z3T8fs/b9qILaRfGdun6pcguOzuml4KNfctr+CQj9YLBRggnEoAtRkEluFvXbNx8Vy459S1lZSPgrli49wh2qlrlzCOPTd6W5lUzG5u5l7aRZptAHyiz6mDuKhlv/PHOF6GLmZYbS8ttzbU20YCfsYKXz7HWC6A7UW89EBNd2n067U4W0ZS4itcAMRDulsOisg24NIKpavePl+mtXatboHdly19OQ6fAEAO+0efPQl+1bp5c6d6d93ilYM1dgFZY8nvKWNWU8i4RF7fknd0ThfuB//HaH1g4Dynwbkt3ZBTdlUtcEVNnYzX2VN346V3nzg1Fr71WQfUVdJpB+E1i2+M2j5uGl8Ebf58xtBwPemkmUz0kMHWWmtvD3+cXObR8V21mGOCDjr+pkezJ4E/c359x9HuX1Qj911cpMGOBF1m+MMiaSWWqrKPqKBkr36Iq5xr5LNouPCmfKi4U2SUoQUtC4t76YY4h31h80fO6PFmWeKiBEsJh1frY28yvbstEN+jdE33VlK7NXREwntQ+jD8vqX6BEeIoJ//eOcWcScyMvf1i1aj/Pq6MqcVneBEJA3rmn/qP/fK/zxZMOtX+mulNF+njKZMVdHcpEEjalOpYzojip9/IW7CCwEtzFKl86SaDYukpaS2619NSAeF7GZiMXx6x9VybsAxixJrHLefVDm1WljaQTL7boPFKdhBz+qafh7bMB9XqKdP8Y3BwWyJXPiUgYiTA12rVHf/NRdSrLFmM3iu5nEVH5InK+85u4tH1vngsaoDjc5FUIJFlXANIzqfqG6nZQvSmKJCVO7mbRevvrexcdy2oWJRO7GQHw42hB2dIkPGgtnvZC/12JMEWyJt9cq7r8cuNgYdtHaXVSWRFhmwju0qFY12LUXpE11Cvma4eaY/bkDYuc83nFLBGc2qvwqYP18Bk4hRIpunpKNt0dCDQLgCn3f/RFDUwapO1MRFgMbp3zaf1wJlEE609oQzEy04KNqjV2a7fz2tXkXePWPoywiRsAUrd2uqhfEcXZm6NrAa3PPwh+s+Nh7gPcSzBnT8rXk5skfqWhmsOqVVyPUbxAugDitkeiluaFO+8DbgedGRBOqHyJCjt+dJcBXhkCq2hfu1ztiQYO06aQMOY2MFkdvxHvjq5Fsu4k+bcetOZX/Wzqaz1o4Vln7QjH5gcMEoC6M3Jn3B3vni52CeZpyhMppWHluGDTvRsL8tTlHQvZvsfgy/Ujl2pO/U7y1q2Ach9dPcWWlTrDEP1fGu/otfaFQJKB8q+Hwaez6+HycSI6mebNhE/Bcw7qH+62D58fsbI+y5iFvc7R9x1WX4gMysyFCOi9KkldE/iJVX73rRZ/XGbxNsUgFw5nx1iITFCaW0B2DVG6YXIN1iquMHDESXPhA2GQxZcYgJbXwU7jaXvtzUi7zWvSOT1Y4GI2szyLldRVNPOWWe1JnLMnpjE/uv9ixXI+jLJQ5gjFPhj3MY/7U1+v3U33sru7fn/Wp2BadK/I3VSsD/v8/tqsdu2V9IjQH/SCVLW2KHZdlrN4Xqchxxnl00rWFtCvnTBZmcasO3exao28n9Citq9uqOcuF5ighVuJlQguUqwd2pRF5EDR8waAgDw8Cm//RYCNtxPLKaGKBMpUi8+Ge7luTd3Y7byaO0du0p7HhPXCJUb2VRL1SWHuS8eVCQSf1g/f8//7joa5D3Lz2/xF0XzOc8io7TkfGgvLtR3w2CLMlmdsrskSCA+bK8d2gEQJT9urxxIKZC6q18GTAVG1K4uluQQh8p9uI1wcdptzgQONWc+xLOkkYmkyWZKPBJ8H55Zaj05tBBvohB7ury+d9rl3NtXVdXUSM0+H2c250QPSzuyFyFZox/Tw9JOUTmGBpULm6SID1gmCcoOBXqy/ulBjo3cA68OkdLm2LMwuqw9K6NVKOPVaOQ45Vd/RaR35Fku+D8YpeN//3YkN/kwKY08jKVU7QBg9LqsvzDjfKTwxeNY5dsllYzfTp+LdTtTxqRmPxzZo5fWV8Msd49kDFFhItUSxnZmufcVLVG5E2iDhOhVUbKep8AQZyjijaLL2+L1njzV7qA0Obb+DjdCbzTMMEnppXoQQAePVhnKSaTnQGVvbtbCrtovp6tR1C+yibuiqbw0pwAbfmLnfWnIftJawHrQOpZbYJqjbtTviQY3dwQqthEIKS5IZkdKYVwD1xp6YP6+UMQId5uBg7ZXzI1Zd2h5BCVPQ1I+q15PykZ5GGtFXItuQI+9IOKRSyZ/yds0guNda+BBPw6/fDsh7K7XssrW+ErUC1bDgXh6z918es2cK3121xrDXOfILm6qXU6WlYO5VnekMsXHqYXDjPd1ymUFgoOdhiZ1OqoNsciI3ejioaFO2bxxsy0KjOnIb0GjiXUBEeLK++ua6t3NRNndXH06HnDei/LVEQRchZjF2ZXd9snCtUS+wYkVEf7yIHpHiszUW8OL4Cxcrthu7PfQauZivx/13F5r33r7TvPe2H/qNXCLK912HOefnRg9c2qpSJSpuWxNEZdtYmaWszatImJakNO4bmce0s/vXNpzzcY45Bi/Rk9PqKc8qNEZaHC235b6yFeTqLdE98mpdxucGtMh+0b/5zgaPFgnn9CoprE8WKSPW5EcvVP7wymbv3+McWRizZ64CuJ6+KS1rkgml34CsHjq08vqj8PfFR8WUiIEJLM7JzdpU0FfSa5FEJsGWHbQPeBDY25i4mnyXmjNtcZJ/x2gH3tzvHnzZ9ajwssCJcPPhV/8x5OHJ4lSEZGG3yFQcy2nurk3cLIMOHeOUrKy0qmS33FaH//76XlSYo1lEnAme9C8Bfhjg8cby3y+2Hv7fPgVn5TkWEphAdsm1K8sHx+a35A7U7oinWNsq4xsUZCWhYK6YEhLZ5icr9oBDo0ev1u3IypKNAkUrL7BwiQjS/AoAiVlkLle3vIXDQjYCxVa6BVTe6huUjbUS3MVa+OgkgaTx241fEoAKq1/c7Rz6v2y2NRtgX+V7H1TY2O30QuoOI82fLPMAnZOPg1v/MaRSu40Wgz9xWJLS8aWUj5OUDiBYjPnD4hIEgBcmd1+ywG6IE/pbZDtHP3l4911/B6IFP328MLuy0XwdgKQcyLyBaW/YjHm7ahOl0CGOL93iZZE+4Z72PCwdbMvGntr0VRv2BXQZzEzQRgMK4kPsttZq45WxWyN2dUtp49zQrVds6i0sBRnjEXcRyebpZAJYyV6Out3A/upLFyqs+kGesoJ5rVw/KBawg9Zye/EIAOXbV4vBv5z10DwcUwNlJBW48Ni1ETZxa8Y5srDVfOrWNMasfZdB7LoasCMFzQFI9nRMAlM8NA8vBv+46cbS/WLwYe0xigas2riMsdR1NAzYPzHdtC0754qQSivND0SNzgB0Am/6//3id9KuCmXjSesZ/unBJ38bUHiyaMx1G4xj7uitqlPOnGpxuyocSlSeGXra/frFsReuVFgls7JyJhxl03ZpEnlwKupV+rdiOedfGD1wacvESM8L33S8d0CCK/9OtXSZ8BIDTcoegS/WXl1s2JM3QLiou6/nD3JriLs25KxhII6uLJFyNciCEuFVrGGV3YZL/qfT6+GTEwCdyLeMKlSyO1VWX9hfOfbzXvM7UPnexRFr8iP5ajJuEm1X3KAqAkdw/Cn/8p0OX+01y56wQ+dhQWtpZQI7TSD7/IcANbeKhjuSmdFFPVZ//djXT5fe+d2DLwfi/+0EPv7bwu/fawfefBLFmHm5SCBLFyJMsJl1ZX5iVstgtg2N8EaRBhtNpvckLffWd8U7kBTkCWSujhwpiuBSokIcy27ur89uuX+yaPNc+TgV5PPOPVequMhnpBfIYr7ML/uIDMYYXq6/dmHEri9wys5skinRxmZqoLEMRbdhmSgYz13nBUtCQB089D/9K4+33i5kK8r3aJGwc2XMmr0yYe/vOU+XjWK3/dovHFSvZMNTDqGP5vLksQEAHq0dWfD/n4GGuQ/QwpJVxmwRY8YolbntOB3gh5sv3vwm4YXJ3ZeI6DakNlTjaWQkDe4FwYn/ceeTv/3HO5+UujfXk9Yz/JfP/uFvH7ZWfkhEx+W2yGiUaZLf4TC7OT8xexslQhRAKYPSrmWLjrtgRD1ZWBazMFPfc9Vm9oWC/AFi8XY1EKog6ZeqRZb8pAtjlbFb1R7cgem0i6iUScTkzSoxHqkcWJ5gWyKdMxY/Uc5p3TNGFVbWujsBu919mK7MXLEQtY1+dMjzl7q7smKRzYNpgub6QlY1WTuJNA86Mu6+9/sTLf7s9WjRe46qQoyw8Zvz7pva/r8VzFS+c3vEmvoIwI3EkEjHaVzBmZteqvGjLXr8g0GembUDc1iCzpQql5puGvcJxpjn+YOfvCsTr84cuORY1nraskTRFsmAMvj0nc0Lg5P//ODL9y9//N/fW1p72hctfhjgxoPbx3712f/3n5+sP3uTOB1Pu1RsyWzm0khuN9z67fHqaF/06JEM+1hiKNWTRoZtk/scHNt/Vd7BnSnfFIsuaTMdpbF2WbHc5ouN+W0yAdWm0QguAWUx3SysXRENLHdFGZvMtwa0luiV+neujtpjt3KeLU0EQU6zl9xQxcrgYECpEiV12byLsBT/eZs/w5Ng4e0QXjQvJOxioVqn2bwkhw33ypR98GKF1frKf7/zvR+7rL6Q5J32GW2VZxdDeFP3g3/4e6LBGB3OQN4KwFJ3a882qYq2nil4jojcxZWVxuToaNOxbTiWBduyYFlWcj81feM1TQBkF2Q0RyH0KjU/xmDFE4ZBGMIPAwQ8hAWGxkgNo9WRnsq6pzGBXaMTv364tlwB6GiaaRpplhAG6Xe28zfgB8GJB6tPGv/l1j/8YKo2/ptvzx786/mpmeWqs/n8d8BDPNtYx5fL9098+uTOuQ2/M0vAiVQHKhrXEj0kbeVTsZzLR/a89IstVcC2IVkw0V+xn2wTu2vTcG13eSPsZK9ULRfd++N+Gh12KCeo2u7S3OiBnugQLcN88ZRjCIUEA9lAVS2/OBw12Q1KFIzYdRysvXL+8/bHUxu89a6Um0IjiwNWpGhCHa3StcG6U9W7SRQ7peOnnF1K7nb++e0NvnZYa2kK+WXbVEXpRqyJjw5Ujl3vN/9xez/GwgOXlsPP5gl0LLpKqeGRPww0pfPoBq3494Prpw5Uvr9pOH2vGJjAApRBKjLvWJYk11O5whhWW+3jV27c+G1ksQBEVGEW8yU+Fj1TSa4wBh8sdvPEnZwJa37SLsziSXwGRMZldKgcB7mcU4Uxhsn66I1/+70//ncVu7eqOX7wlb/81cf/+FEoahaCwNxiiPYxPwzxsPn0xPIXz960mOW5TmV5tDqyUKu4d0Ycd9G1nWVO5HqhP+1zf7oTBFNNr3XYC4NpPwymCXQ8LS7LBJBoZekYd5qSMTDg2phbv31o6kBuK5d+wCQuKZOQeucS+mIlg4hpjufoDotZmB/b/59uLn92mINnG3QqAlrl4UjzZ6lrjgGwYF3YPbLr15vtzK5C51bT6G7yMyAQlbzbS5pRoiBl9cmYjo7BroWcqx1qPvTu3eiE7YtJ+wjNAvVEX7HORPdxjmqJkfaHjFUVnYBOktXDkI3xfvE0uItn4eIpjkBY9pIpU+mV1HsV0VhhtcszlW/9oix37n7nexfW+IPTHiU75AjUaAyFhE5CcOwp/+zcDB274vRp6akYmMBS59Z1/Si5Hq1riCrZsiz4QXA4yD2QvSTpHFknTtgdAcyC6v6QGbcowOLnBEG6vL7mNjc2MDWarSPdCuam9mB2fOpXd1cejzKGwxINouBKGzpfIaKADzg/AYTweYB1r5UJ+OxV0Wtz1qP4vqxTKbw6nzb5SYSKXVk+Nvvqj0rbP1BA6vfXCC0g5lW5CfTemdDBsRdufrbyZbPDO3FWksaDlAHochGZAgMcu9Kca7xwtVcarNSvKRe2SGgx9WaZ0EpnUaFjSNdGDsLCU/By/cjF9WD1yDpfE6wTkdZ8nSVg2o48OJpzYf+qcSHdTP/bNu57H7/boSSMPcsov82YtJ309TrbdW2vZr/A7aJqjWHSOnjhYfC7I5nnCPIhHMh0IbFPe9Q8dMf/9bmX3P/lg7LoAQa5cDiUtcTMRU3CRzXnge4dL9MoZIEg/FaCC6LjkUTrRny/8EychhO54TYnU7//0pEfV53KkjSXXjQ/IdClljlfJyxTkBOSY8Gr2cc2B3lTU22W8RsJAK7tqo1ff3FyX/eX9oFukXKy4AIYaFsulonqGEad+ue5PIsyLrwanSy8d2R3zzTImu5mbZylKJP1dpc9BTdL2K19M0xV9mB25OB/cuJzzLrNq6rIC9RE0yuPvmIKNBG1SIYmxYx7+4Qs+Z9Nr/OVY5SGsXcb4FmgTJU1bh9wX39/2xkX4IXKm5drbEp2MSYkKd57zqW6Obwa3nlrjd8rlZ6BBl2oAkJmGhofqBDeXLxQcLPhHL2HSb+zbKJ4CIFhiv2BCDazmtsN6d0zNoE35g6fsy3rhkhyKhAFwZlFS3YXWuI8l1ikHLbI5aTur9AF4NqoW7v9Jy99r+f1G1vPXfxFW2rT7Q7/ubH9lyxmpWH5W3HZqCkswoXdI9PXenUHAjq65UbM1rWoY6QckZXvY0XpYtY3OCNFi1fq3745ao9lSgXFDFiyoAqUC+0YKFHQpuNCVIyBxF9dyJ/6AKcQD/3Pznao+Xb2urxSLWZHACyyrjWsPdfG7dn+CNDAYg72Vr77UwvutcJgoTieILWw4t8h25i56/+3vy+VnjJfJoJy62fiYSEx6EhMS+Y+ZGadReHIw5/BSq2UaKW36s8mIW3GmFk81yUvPsyerTj2umNvv1remDt0/eD03osAbkf9Xbafk36XeTPVCaW8AEtW2svrTrKjsKWntYOGKdFMBIrn70RUbXf5jw5859/XK70FnWwH6aSxxjLOsaltaqwHGrO3HdhNNQw60090TElcmEqo2NXmwbH5bU0eF7BaqG2b5Ju55LaTWxER8QnT0kvFhZ8yI4yGUjmBA5uBMQvzI6984LKR89FQSXgEoOcVgFx3cl1F/b8kYZ+4NESlNueKFH/zyC3Qh3V13//46DpPTnFQR3dB1gBcNrow536vcDf2frHHObJQtSZupopNdjSF0ncSPgUgCsU/3KFnRx8FHx/WvXc7GPhu7YmVxcDAiGXHcHTpV4kvX6wXxO9JO5GYFlAYcu5tQrouDIEA27KbvQZcqPjha6+/PzM+eYVA6ca4hVnqLCjkr0lRkBpLRQydJ550pq3T7FqVy9+dOfzjg1ODcwWqyC0T1WiQ/fh5JqvjGK3U72jnC6UfQqdQ0o7Y7tJMbc+2aWCAp3dhZdci8UHK3gHlo3iM5FH2wuEivFB72Zuq7LnGwKQdRJKpPN240KGsgIfcexkKD0fU1ed2zzLzeAuP/C/+g0/tt9QR3Q0W7GtTzsELNWtyO9luGfudN/7SYbWrhQkYRdLEgiTYOTrHH4W/+1lI5Zz/N8CdLjKzWXYNsmyiNyed84wYiOehuOyySN0HKGZp4jtzCw5Tni4zd0bdthDaGiq2g3/znT/6y5mxqasAbks9L6+YiJa1pgyqFkndbgq38sI9uy7/rljOle/OHv7JH8y+Usomt0XQ7fyQQ06j6KZhbI75sQMXGWXMsOurcszHujhbn/nVdoNPLDApWrV47oVy8wGlgQGp9p/kqu1nW2WR5ePl+tGLNbuRW6BOJNafdAeixaWz0vsFk8OzpJxVOmRvzvZ4x0Lno9Pt8Nnrav+nLh8AqFmTH825m+/G3i+mnJe9cevAZaj8TKRG85UAbNDKsfvBb95GCRicwCLyIAoMxbVHie24qX89c8+IV8Vv2VsL3kFFP7I8xNtluBVcp4I//YPv//mrew/8jWPZNzLZoUqQxCsuu0PTm4K1pQqu/EBNMiHkqkx6V/rk9bpbu/T9+e/+u2Ozr97AgMGifx7U9qDBscoDjX23K5aznPU/RXGBUlXCvYrlLL8wun/ba1psZkeeBlXRUttFYXhlBQlaTFj+K7nXsv6kdvXEVbtTFhYATFZ2Yd/I/EUHzkVZyQRCTuCE4m2XlGjS8sLamZcGH28BWV32bmG1wmdYDZdOhfBPauw4kMok4jQu6pf2VY78tcN25vzEucoff1BhY7e6V4rMeKJf4dFn4Zfv+NTum4bB7nRBLMqCEM8daXoAQeqNRW6L6AoDiecMiM8BYFS86JKENs+Epvj+bEAHvJwtVyq2g//5W2+c/8Hh7/xpza1eBXCbxIyL2r3wujoYpRh2iJ1FZlRieSLx7jD76kxj16/+t1f/+M9e2TVX6nqrIkiWSqppsNQNlys2xcyzDyY0WR3HZHViU2Gsy6FqV5enR6a2nbdjOVtk/Ez4FrnOy4LF7GY6zLspYoIFFk3FDH4THBGvjh67Me5MXyfgctRjhYl8JjIqRXGVhX2pc2+xeiPwpMR5W641+rX323c6fC2e54kLrPGEZLyNAcSu163p6zOVb23t5OsSULUamLZf/tCCcyNyYfPc3HgeUX35aM3d9X99rl8aBuoSBIBkErsrNPNVqgYYWR8xl0v5MuXrqIuFlNVr9mLRoiIQOHGXdxvY28CR2fmFP3vjX//w6Oz8X1ftyjUAN4toEMuh+yFarF2S5azGBBZj1+qVkUtvzn373//vr/1PP50cGdt+wXqExaz8pLR23iq7zpjVNxM6OH7gomM50ia+qmKkWlo2Yxdmanuu2Kz36MAEkYUTM1Elg7x3UGPulAZxp4h8PqSMI8bKPQ9rq3hl9NgHDWc8c0uLrlICiDIGmW1HJKPcNWRqIJdafar3p/e8H/pfuGvho5M+805Fc2VRUIOk2Eo0RPlVWX3hgPsHpYexb4YDleOXa9au3+joipxmYl3w9HtI/tF1Wjy1FvYX5j5AgWV5qUDhxZZTgsRDqGtzUWhp+4TKvAnRXn6K1ZEklSxrkt/LiVxekoUlolGt4U9eOXbh377xr39wZPbgL2pu9apt2TfEESDtyqGTxGkZeh4gNxxmX50YGbvwrw4c/fP/49t/8mdH9760MIiFwd1gMwsWs7wc/QonEDVYxvp3T+0fnV2uWm6BJqpnCq7tLs+PzfV10rLFLNjMLmT+OhnFUI6QTlCxKk1LJ3SVAUfIhstOugNFTLt7MesevOiy6gXxemLd5N3iaYLIKi2RbBvOusOcC8Up8uPThgOHuU97yWfJ/+xcQJ13EqVVMqJ02QBwUL0y5uy5Oun0vht7v7BZBbPOG39ZxeSlnGtbOvBRJtxiDjiF7uPw9+/2k//AdrqYGK3danXq1/wgmOJELrOYJ024K50riiokwIqddtEWQT7FWzAxhnTgS0q6sMyaOIFZsduRKEsoR5bH//EkxN2LvWRgloWq4ywO8jyuyVoDf/LKsQt/5B+58ODZE/fzx/fP3H/2+HS0rRIQ8PB4WkaxDIhohtihhe/pn+jaDce2mxazvLFq/eYLk3svvTi17+qu+ji2s56oLNQqI5ioNm5VmP1hSKGbNoZQxLRNwGAzy6s7I3eqTi8HJuYxWqlj/+js5aXWQy+goCFYp+nGsCwN5Y5OWZ4embq+t9b7YmEVk+7ERwzsxwEFo8n7xTaNlKds67GKVWmOV8Zv9Z1xkn9l+jcBBT8KeNAQ9/WgePulKO+MHtuyvJpdX3CtnZkXUfFq49iNVti83Ayffc6R1pmb8kLGPAZywZgHYaNZhznNujV2u6w5rIY9dbNmjd1isM8TwgaD5UXzU+SCURwMF8/Jxh3YYZXlcXvPr7eax3oYybYKG/nQhtNgzPIs2FF0dbz0Jln6kS6DgeVVrfqdg+7xgYWxb4Zp52Vvjd+/uBraHsfGLIFgMUs6iyzm4l5ynYF5Nqs0tzPHJ4INahsWPwjxtNnMMVVLjB4U9v9j4kCOBYjFGET3nLx/VRa8IXZStb9aLJsDkdIJk9sh5/DjTXAZY5id2P68xXbghwFWN1pYbq1OP1pbOfGo+ezkWmf9sM+Dac7JjfY/jBg5UbS+LVEAko1abctu1iru4mRt7Mbu0Ylf7xmduj5VH8OoW+5eXmVg3WuDQJHwJEJIoSCHGTjxxD2LEbuKWknrwtb9Fnzup/kwZoGIy/tOMoaK5aDmlFdvIYUIeNS3QIjLGzEj27JhwQInDp98OMxBL0eYbAVEhJACWMxO52REzScpPyeOkAKM2N+MPsMpRBZjHK9RS63y6JYYIKK1JPtAQB46vI0Kq8KJj5mXrP90RtxKf/cqMAPy4PE2LGbDZbXUxZj8U61dBoatHnk/aHT4Gny0YaMCm1VgwQGD2gZxQ8V/+6V9YALLwMDAwMCgTOzsJIaBgYGBgcE2YQSWgYGBgcFQwAgsAwMDA4OhgBFYBgYGBgZDASOwDAwMDAyGAkZgGRgYGBgMBYzAMjAwMDAYChiBZWBgYGAwFDACy8DAwMBgKGAEloGBgYHBUMAILAMDAwODoYARWAYGBgYGQwEjsAwMDAwMhgJGYBkYGBgYDAWMwDIwMDAwGAoYgWVgYGBgMBQwAsvAwMDAYChgBJaBgYGBwVDACCwDAwMDg6GAEVgGBgYGBkMBI7AMDAwMDIYCRmAZGBgYGAwFjMAyMDAwMBgKGIFlYGBgYDAUMALLwMDAwGAoYASWgYGBgcFQwAgsAwMDA4OhwP8Pk7APrfvvucsAAAAOZVhJZk1NACoAAAAIAAAAAAAAANJTkwAAAABJRU5ErkJggg==;" parent="1" vertex="1">
          <mxGeometry x="118.79" y="190" width="63.88" height="20" as="geometry" />
        </mxCell>
        <mxCell id="DQRYagVgzFqcXcsBO_f1-9" value="&lt;i&gt;********&lt;/i&gt;" style="strokeWidth=1;shadow=0;dashed=0;align=center;html=1;shape=mxgraph.mockup.forms.pwField;strokeColor=#999999;mainText=;align=left;fontColor=#666666;fontSize=17;spacingLeft=3;" vertex="1" parent="1">
          <mxGeometry x="272" y="290" width="280" height="30" as="geometry" />
        </mxCell>
        <mxCell id="DQRYagVgzFqcXcsBO_f1-10" value="&lt;b&gt;Language&lt;/b&gt;" style="text;html=1;strokeColor=none;fillColor=none;align=left;verticalAlign=middle;whiteSpace=wrap;overflow=hidden;" vertex="1" parent="1">
          <mxGeometry x="272" y="90" width="60" height="20" as="geometry" />
        </mxCell>
        <mxCell id="DQRYagVgzFqcXcsBO_f1-11" value="English" style="shape=ellipse;fillColor=#eeeeee;strokeColor=#999999;gradientColor=#cccccc;html=1;align=left;spacingLeft=4;fontSize=17;fontColor=#666666;labelPosition=right;shadow=0;fixDash=0;noLabel=0;editable=1;movable=1;resizable=1;rotatable=1;deletable=1;locked=0;connectable=1;" vertex="1" parent="1">
          <mxGeometry x="274" y="119.5" width="15" height="15" as="geometry" />
        </mxCell>
        <mxCell id="DQRYagVgzFqcXcsBO_f1-12" value="Deutsch" style="shape=ellipse;fillColor=#eeeeee;strokeColor=#999999;gradientColor=#cccccc;html=1;align=left;spacingLeft=4;fontSize=17;fontColor=#666666;labelPosition=right;shadow=0;" vertex="1" parent="1">
          <mxGeometry x="370" y="119.5" width="15" height="15" as="geometry" />
        </mxCell>
      </root>
    </mxGraphModel>
  </diagram>
</mxfile>
